<?xml version="1.0" encoding="UTF-8"?>
<svg version="1.1" xmlns="http://www.w3.org/2000/svg" width="512" height="512">
<path d="M0 0 C2.66796875 1.6796875 2.66796875 1.6796875 5.1875 3.875 C6.1259375 4.68453125 7.064375 5.4940625 8.03125 6.328125 C12.12319924 10.01087931 16.20091902 13.70665013 20.23828125 17.44921875 C24.79961242 21.6621597 29.49022292 25.71432894 34.21484375 29.7421875 C35.41421409 30.76544735 36.61342817 31.78889037 37.8125 32.8125 C38.41860107 33.32973633 39.02470215 33.84697266 39.64916992 34.37988281 C43.39051541 37.5848938 47.0610693 40.85201503 50.6875 44.1875 C54.14015696 47.35830742 57.65530966 50.38035031 61.3125 53.3125 C67.05978447 57.94820366 72.40968434 62.95767901 77.79296875 68.00390625 C82.4639332 72.38116714 87.29747541 76.5514289 92.171875 80.69921875 C99.01025856 86.52598465 105.73161517 92.44380601 112.328125 98.54296875 C114.56836785 100.60307512 116.82908873 102.6275572 119.125 104.625 C119.73730469 105.15867187 120.34960938 105.69234375 120.98046875 106.2421875 C122.54413697 107.603214 124.10959272 108.96218697 125.67578125 110.3203125 C127.04283203 111.52300781 127.04283203 111.52300781 128.4375 112.75 C129.28183594 113.48734375 130.12617188 114.2246875 130.99609375 114.984375 C134.86491836 118.87582432 134.14575214 123.49089886 134.14044189 128.63447571 C134.14489858 129.97341748 134.14489858 129.97341748 134.1494453 131.33940858 C134.15814495 134.3425741 134.15964161 137.34569982 134.16113281 140.34887695 C134.16576007 142.49719325 134.17078461 144.64550873 134.17617798 146.79382324 C134.18931247 152.63890306 134.19574893 158.48397138 134.20018864 164.32906365 C134.20311755 167.97899738 134.207222 171.62892795 134.21169281 175.27886009 C134.22537023 186.69334534 134.23503581 198.1078234 134.2388947 209.52231628 C134.24337681 222.70861962 134.26093081 235.89481938 134.2898953 249.08109123 C134.31149473 259.26715061 134.32159805 269.45318081 134.32293582 279.63926286 C134.32398505 285.72601849 134.32991811 291.81267677 134.34775543 297.89940834 C134.36420609 303.62443009 134.36640618 309.34928101 134.35761642 315.07431793 C134.35684445 317.17619216 134.36120978 319.27807546 134.37107468 321.37992668 C134.38374842 324.24834681 134.37794215 327.11615773 134.36749268 329.98457336 C134.37554908 330.81716763 134.38360548 331.6497619 134.39190602 332.5075863 C134.33730915 338.91156038 132.9045172 343.01648061 128.36328125 347.74609375 C127.35477688 348.65268715 126.33747054 349.5495653 125.3125 350.4375 C124.77286621 350.91775635 124.23323242 351.3980127 123.67724609 351.89282227 C122.12548951 353.27048724 120.56389138 354.63614737 119 356 C118.31550781 356.6084375 117.63101562 357.216875 116.92578125 357.84375 C113.92222272 360.50199703 110.87502962 363.10793598 107.8203125 365.70703125 C100.97880293 371.5344906 94.25747892 377.45656731 87.65625 383.5546875 C83.13701153 387.71504527 78.49821391 391.72685535 73.8203125 395.70703125 C66.97880293 401.5344906 60.25747892 407.45656731 53.65625 413.5546875 C49.13701153 417.71504527 44.49821391 421.72685535 39.8203125 425.70703125 C34.06319979 430.61126804 28.3538038 435.53953226 22.8125 440.6875 C18.14982747 445.0015615 13.35978179 449.08845524 8.3984375 453.0546875 C6.4392796 454.64371134 4.59882811 456.28812212 2.75 458 C-0.62290547 460.45302216 -2.85096915 460.92456308 -7 461 C-11.48695038 459.70953824 -14.34520461 457.11767796 -17.625 453.9375 C-21.43292816 450.34079744 -25.27565618 446.89355964 -29.375 443.625 C-35.10522487 439.01428361 -40.43085078 434.02243362 -45.79296875 428.99609375 C-49.94013186 425.10969832 -54.20912379 421.38391053 -58.53027344 417.69287109 C-60.31220146 416.17065933 -62.09368601 414.64793026 -63.875 413.125 C-64.48384033 412.60502441 -65.09268066 412.08504883 -65.7199707 411.54931641 C-69.25700261 408.52055224 -72.74426485 405.44820537 -76.1875 402.3125 C-79.45804605 399.33975977 -82.80235614 396.51514086 -86.25 393.75 C-91.32423006 389.6504808 -96.0623033 385.26629138 -100.80761719 380.79785156 C-104.27026747 377.55481169 -107.79268593 374.46585125 -111.5 371.5 C-117.18350643 366.9498368 -122.44963744 362.00645513 -127.75390625 357.02734375 C-130.88484845 354.09202883 -134.08617904 351.25002376 -137.3515625 348.46484375 C-137.89554688 347.98144531 -138.43953125 347.49804688 -139 347 C-139.68430588 346.49519073 -140.36861176 345.99038145 -141.07365417 345.47027493 C-143.94226983 341.79166788 -143.5376286 338.55373372 -143.4699707 334.01075745 C-143.47212711 333.09206829 -143.47428352 332.17337914 -143.47650528 331.22685093 C-143.4787534 328.14120245 -143.45221275 325.05647366 -143.42578125 321.97094727 C-143.42133992 319.76175199 -143.41860926 317.55255271 -143.41746521 315.34335327 C-143.40894784 309.33707285 -143.37494312 303.33118281 -143.33537292 297.32503629 C-143.29715823 291.04534503 -143.27854435 284.76559044 -143.25683594 278.48582458 C-143.21454041 267.26186495 -143.15198766 256.03810976 -143.08150077 244.81430274 C-143.01816692 234.63883913 -142.97577146 224.46346431 -142.94873047 214.2878418 C-142.91731985 202.4718626 -142.87254601 190.65603067 -142.80806828 178.84017605 C-142.77394762 172.58526745 -142.7452095 166.33045869 -142.7303772 160.07547188 C-142.71556219 154.19433793 -142.68132342 148.31363237 -142.63200569 142.43268967 C-142.61707423 140.27238395 -142.60893621 138.11201919 -142.60803032 135.95166206 C-142.60569419 133.0060449 -142.57894055 130.06163565 -142.54589844 127.1162262 C-142.55093038 126.25805552 -142.55596231 125.39988484 -142.56114674 124.51570898 C-142.47115444 119.3982264 -141.82670097 116.72751431 -138 113 C-136.41242992 111.62231207 -134.78394658 110.29085205 -133.125 109 C-128.50390631 105.30065056 -124.12953102 101.42416914 -119.8125 97.375 C-119.20873535 96.80918213 -118.6049707 96.24336426 -117.98291016 95.66040039 C-117.1038501 94.8365686 -117.1038501 94.8365686 -116.20703125 93.99609375 C-111.5360668 89.61883286 -106.70252459 85.4485711 -101.828125 81.30078125 C-100.63513685 80.28418244 -99.44243795 79.26724412 -98.25 78.25 C-97.64631592 77.73518066 -97.04263184 77.22036133 -96.4206543 76.68994141 C-92.47514717 73.3089801 -88.61880634 69.84897957 -84.8125 66.3125 C-81.18716792 62.94416553 -77.48767607 59.7207798 -73.625 56.625 C-67.89477513 52.01428361 -62.56914922 47.02243362 -57.20703125 41.99609375 C-52.5360668 37.61883286 -47.70252459 33.4485711 -42.828125 29.30078125 C-37.01364442 24.34645004 -31.2395285 19.36847765 -25.625 14.1875 C-8.28296538 -1.81520305 -8.28296538 -1.81520305 0 0 Z " fill="#9F82E7" transform="translate(271,26)"/>
<path d="M0 0 C0.495 0.495 0.495 0.495 1 1 C2.8718094 1.09386381 4.7471806 1.11743804 6.62133789 1.11352539 C7.82250748 1.11344986 9.02367706 1.11337433 10.26124573 1.11329651 C12.22214394 1.10555458 12.22214394 1.10555458 14.22265625 1.09765625 C15.56644132 1.09579198 16.91022707 1.09436812 18.25401306 1.09336853 C21.79682277 1.08954402 25.3395917 1.07971432 28.88238525 1.06866455 C32.49515227 1.05844899 36.10792584 1.0538706 39.72070312 1.04882812 C46.8138188 1.03809198 53.90690674 1.02101636 61 1 C61.00423194 1.57026381 61.00846388 2.14052763 61.01282406 2.72807217 C61.11953434 17.09417297 61.22783659 31.4602613 61.33763981 45.82633877 C61.3934957 53.13763931 61.44891104 60.44894271 61.50335693 67.76025391 C61.82810285 111.46104252 61.82810285 111.46104252 62.32421875 155.16015625 C63.12465994 216.12016171 62.75696362 277.04000663 62 338 C63.9254644 339.1490712 63.9254644 339.1490712 66 339 C67.18014875 337.85356979 68.35460094 336.70039453 69.4921875 335.51171875 C72.16800661 332.82896747 75.09850537 330.4332419 78 328 C78.66 328.33 79.32 328.66 80 329 C67.7777624 341.92963399 67.7777624 341.92963399 60.25 344.0625 C54.05640596 343.94339242 50.67329436 341.10524201 46.375 336.9375 C42.56707184 333.34079744 38.72434382 329.89355964 34.625 326.625 C28.89477513 322.01428361 23.56914922 317.02243362 18.20703125 311.99609375 C14.05986814 308.10969832 9.79087621 304.38391053 5.46972656 300.69287109 C3.68779854 299.17065933 1.90631399 297.64793026 0.125 296.125 C-0.48384033 295.60502441 -1.09268066 295.08504883 -1.7199707 294.54931641 C-5.25700261 291.52055224 -8.74426485 288.44820537 -12.1875 285.3125 C-15.45804605 282.33975977 -18.80235614 279.51514086 -22.25 276.75 C-27.32423006 272.6504808 -32.0623033 268.26629138 -36.80761719 263.79785156 C-40.27026747 260.55481169 -43.79268593 257.46585125 -47.5 254.5 C-53.18350643 249.9498368 -58.44963744 245.00645513 -63.75390625 240.02734375 C-66.88484845 237.09202883 -70.08617904 234.25002376 -73.3515625 231.46484375 C-73.89554688 230.98144531 -74.43953125 230.49804688 -75 230 C-75.68486103 229.49588467 -76.36972206 228.99176933 -77.07533646 228.47237778 C-79.94758928 224.78274898 -79.52496515 221.52956537 -79.4430542 216.97711182 C-79.44238835 216.05489484 -79.44172249 215.13267786 -79.44103646 214.18251491 C-79.43390054 211.08514219 -79.39800624 207.98876708 -79.36230469 204.89160156 C-79.351317 202.67429885 -79.34209754 200.45698678 -79.33451843 198.2396698 C-79.30888839 192.21302795 -79.25844594 186.18681619 -79.20364666 180.16037846 C-79.15058921 173.86503535 -79.12021405 167.56958449 -79.08746338 161.27410889 C-79.02941283 150.70525008 -78.9573273 140.13655876 -78.87451172 129.56787109 C-78.78925049 118.68217673 -78.71243059 107.79647677 -78.64697266 96.91064453 C-78.64293477 96.23962142 -78.63889688 95.56859831 -78.63473663 94.87724116 C-78.61453179 91.51090849 -78.59449301 88.14457484 -78.5745368 84.77824068 C-78.40839856 56.85196578 -78.21359122 28.92594941 -78 1 C-71.34211722 0.85815607 -64.68419532 0.71826311 -58.02624512 0.57962036 C-55.76923735 0.53240372 -53.51223831 0.48476775 -51.25524902 0.43667603 C-7.60365245 -0.4924164 -7.60365245 -0.4924164 0 0 Z " fill="#846ADA" transform="translate(207,143)"/>
<path d="M0 0 C4.27407966 2.31841222 7.63644916 5.28755499 11.125 8.625 C15.12026547 12.38528308 19.14676568 16.01126918 23.4375 19.4375 C29.15073515 24.02312295 34.45201937 28.99745542 39.79296875 34.00390625 C44.45191319 38.36990293 49.27070803 42.53175833 54.13671875 46.6640625 C60.27064263 51.88077214 66.35793476 57.14115454 72.3125 62.5625 C72.8696167 63.06289795 73.4267334 63.5632959 74.00073242 64.07885742 C77.25729388 67.07280123 78.85885153 68.93108368 79.1673584 73.45309448 C79.18625122 74.42618561 79.20514404 75.39927673 79.22460938 76.40185547 C79.25838684 78.05905106 79.25838684 78.05905106 79.29284668 79.74972534 C79.36380253 84.79222736 79.4213279 89.83458368 79.45996094 94.87744141 C79.48661961 97.53908226 79.52760015 100.20061879 79.58300781 102.86181641 C79.66193444 106.69736518 79.69523233 110.53094698 79.71875 114.3671875 C79.75174194 115.55690155 79.78473389 116.7466156 79.81872559 117.97238159 C79.79920435 126.00879481 79.79920435 126.00879481 77.53001404 128.82313538 C75.73861409 130.13861611 74.02649737 131.09686699 72 132 C71.29496338 132.38889404 70.58992676 132.77778809 69.86352539 133.1784668 C69.28078857 133.43281494 68.69805176 133.68716309 68.09765625 133.94921875 C67.43443359 134.23990234 66.77121094 134.53058594 66.08789062 134.83007812 C65.41951172 135.11302734 64.75113281 135.39597656 64.0625 135.6875 C63.39798828 135.98205078 62.73347656 136.27660156 62.04882812 136.58007812 C44.98692018 143.94433519 24.29252601 143.38977427 7.06640625 136.7578125 C-12.59255626 128.48563482 -27.25115133 113.31197426 -35.55859375 93.703125 C-42.75530424 75.21401512 -41.84322494 55.13556398 -34.375 36.91015625 C-29.98219503 26.96612112 -23.82245402 19.45766216 -16 12 C-15.25234375 11.27941406 -14.5046875 10.55882813 -13.734375 9.81640625 C-9.50778442 5.94757826 -4.95709329 2.86087565 0 0 Z " fill="#D2B9F6" transform="translate(326,75)"/>
<path d="M0 0 C0 54.12 0 108.24 0 164 C-2.64 162.02 -5.28 160.04 -8 158 C-23.21109065 146.95722831 -36.8078133 141.82413525 -55.75 141.8125 C-57.30074219 141.79413086 -57.30074219 141.79413086 -58.8828125 141.77539062 C-59.90632813 141.77345703 -60.92984375 141.77152344 -61.984375 141.76953125 C-62.89928711 141.76542236 -63.81419922 141.76131348 -64.75683594 141.75708008 C-69.22158129 142.09149905 -73.60969303 143.12193861 -78 144 C-78 96.81 -78 49.62 -78 1 C-52.0032765 0.46945462 -26.00213666 0 0 0 Z " fill="#8067CD" transform="translate(207,143)"/>
<path d="M0 0 C0.69222656 0.2165625 1.38445312 0.433125 2.09765625 0.65625 C20.43755381 6.78170286 34.59857843 20.05741907 43.17578125 37.171875 C51.01721425 53.96293954 53.69313801 74.91259302 47.875 92.8125 C46.97476994 95.23076507 46.01971224 97.62963988 45 100 C44.54238281 101.08410156 44.08476562 102.16820312 43.61328125 103.28515625 C38.51314583 114.3377785 30.66667742 122.62990089 22 131 C20.97678988 132.018451 19.95545371 133.03879514 18.9375 134.0625 C18.298125 134.701875 17.65875 135.34125 17 136 C18.32 137.65 19.64 139.3 21 141 C17.55220914 139.49993609 15.17639467 137.49590738 12.4375 134.9375 C8.96201461 131.74614188 5.43588926 128.69544474 1.75 125.75 C-4.01441228 121.08941135 -9.38851953 116.06220719 -14.79296875 110.99609375 C-18.44991332 107.56909262 -22.19258159 104.25866238 -26 101 C-27.1277177 100.03007991 -28.25530958 99.06001352 -29.3828125 98.08984375 C-31.79815576 96.01407902 -34.21401729 93.93892927 -36.6328125 91.8671875 C-37.19129883 91.38733398 -37.74978516 90.90748047 -38.32519531 90.41308594 C-39.44608562 89.46735517 -40.58120726 88.53825036 -41.72949219 87.62597656 C-45.89954149 84.30137554 -45.89954149 84.30137554 -47 81 C-47.06233444 78.39738399 -47.06682898 75.82491586 -47.02172852 73.22387695 C-47.01212097 72.43339966 -47.00251343 71.64292236 -46.99261475 70.82849121 C-46.95962676 68.21499723 -46.91929365 65.6016705 -46.87890625 62.98828125 C-46.85460494 61.17653493 -46.83076138 59.36478243 -46.80735779 57.55302429 C-46.74451798 52.78377225 -46.67545099 48.01462981 -46.60510254 43.2454834 C-46.53441821 38.37920118 -46.46960183 33.51284123 -46.40429688 28.64648438 C-46.27528585 19.09757082 -46.13969844 9.54876276 -46 0 C-33.6642185 -6.44089307 -12.82652178 -4.67205515 0 0 Z " fill="#9D98E0" transform="translate(175,287)"/>
<path d="M0 0 C-0.495 58.905 -0.495 58.905 -1 119 C-21.13 119.33 -41.26 119.66 -62 120 C-62 119.34 -62 118.68 -62 118 C-62.62712891 118.03029297 -63.25425781 118.06058594 -63.90039062 118.09179688 C-88.92829318 119.24474774 -113.95162276 119.10073282 -139 119 C-137.09584637 114.75153379 -134.16315503 112.3419204 -130.625 109.4375 C-129.35269496 108.37154581 -128.08188875 107.30380038 -126.8125 106.234375 C-126.173125 105.69619141 -125.53375 105.15800781 -124.875 104.60351562 C-122.06260245 102.1983298 -119.33916459 99.70240348 -116.625 97.1875 C-111.12154641 92.10232312 -105.52710665 87.1485744 -99.8203125 82.29296875 C-94.06321488 77.38874482 -88.35353876 72.46073785 -82.8125 67.3125 C-79.18716792 63.94416553 -75.48767607 60.7207798 -71.625 57.625 C-65.89477513 53.01428361 -60.56914922 48.02243362 -55.20703125 42.99609375 C-50.5360668 38.61883286 -45.70252459 34.4485711 -40.828125 30.30078125 C-35.01364442 25.34645004 -29.2395285 20.36847765 -23.625 15.1875 C-7.1663961 -0 -7.1663961 -0 0 0 Z " fill="#9C74DF" transform="translate(269,25)"/>
<path d="M0 0 C16.4863291 4.97245065 27.77099427 17.47546156 36 32 C44.70051132 48.58199964 47.55511817 69.60059864 42.51269531 87.85058594 C41.49735389 90.97435458 40.29764762 93.98356847 39 97 C38.54238281 98.08410156 38.08476562 99.16820312 37.61328125 100.28515625 C32.51314583 111.3377785 24.66667742 119.62990089 16 128 C14.97678988 129.018451 13.95545371 130.03879514 12.9375 131.0625 C12.298125 131.701875 11.65875 132.34125 11 133 C12.32 134.65 13.64 136.3 15 138 C11.55220914 136.49993609 9.17639467 134.49590738 6.4375 131.9375 C2.96201461 128.74614188 -0.56411074 125.69544474 -4.25 122.75 C-10.01441228 118.08941135 -15.38851953 113.06220719 -20.79296875 107.99609375 C-24.44991332 104.56909262 -28.19258159 101.25866238 -32 98 C-33.1277177 97.03007991 -34.25530958 96.06001352 -35.3828125 95.08984375 C-37.79815576 93.01407902 -40.21401729 90.93892927 -42.6328125 88.8671875 C-43.19129883 88.38733398 -43.74978516 87.90748047 -44.32519531 87.41308594 C-45.44608562 86.46735517 -46.58120726 85.53825036 -47.72949219 84.62597656 C-51.89954149 81.30137554 -51.89954149 81.30137554 -53 78 C-50.04022416 76.52011208 -47.04021991 76.86989601 -43.79638672 76.88647461 C-42.6840416 76.88625557 -42.6840416 76.88625557 -41.54922485 76.8860321 C-39.09268287 76.88673 -36.63621627 76.89451666 -34.1796875 76.90234375 C-32.4786076 76.90420837 -30.77752716 76.90563206 -29.07644653 76.90663147 C-24.59493533 76.91045322 -20.11345643 76.9202806 -15.63195801 76.93133545 C-11.0606327 76.94155692 -6.48930219 76.94613067 -1.91796875 76.95117188 C7.05470171 76.96190315 16.02734817 76.97897549 25 77 C17.0891221 53.10595686 17.0891221 53.10595686 8.984375 29.27734375 C8.70565552 28.47044098 8.42693604 27.66353821 8.13977051 26.83218384 C7.06145607 23.7150223 5.98046401 20.59881719 4.89501953 17.48413086 C4.06662057 15.10407149 3.24382595 12.72213614 2.421875 10.33984375 C2.17516052 9.63705795 1.92844604 8.93427216 1.67425537 8.21018982 C0.68565265 5.33473467 0 3.06533684 0 0 Z " fill="#BDAFEC" transform="translate(181,290)"/>
<path d="M0 0 C24.09 0 48.18 0 73 0 C71.02 2.31 69.04 4.62 67 7 C66.21625 8.155 65.4325 9.31 64.625 10.5 C61.6629762 14.7062595 57.93802432 17.72964699 54 21 C51.74379883 22.90942398 49.49630542 24.82895009 47.25 26.75 C46.64921631 27.26288574 46.04843262 27.77577148 45.42944336 28.30419922 C40.40271695 32.61320551 35.51895333 37.06259222 30.65625 41.5546875 C26.13701153 45.71504527 21.49821391 49.72685535 16.8203125 53.70703125 C9.97880293 59.5344906 3.25747892 65.45656731 -3.34375 71.5546875 C-7.86298847 75.71504527 -12.50178609 79.72685535 -17.1796875 83.70703125 C-18.36988421 84.72124557 -19.55998549 85.7355719 -20.75 86.75 C-21.34844727 87.25885742 -21.94689453 87.76771484 -22.56347656 88.29199219 C-25.57458448 90.86670765 -28.53882274 93.47413954 -31.4296875 96.18359375 C-31.96883789 96.68858398 -32.50798828 97.19357422 -33.06347656 97.71386719 C-34.54107836 99.10830191 -36.00912223 100.51284444 -37.4765625 101.91796875 C-39.94917091 103.95806207 -41.00914804 104.34347152 -44 105 C-46.12014334 106.61878673 -46.12014334 106.61878673 -48.125 108.5625 C-51.79074447 112 -51.79074447 112 -54 112 C-54.33 112.99 -54.66 113.98 -55 115 C-56.485 115.495 -56.485 115.495 -58 116 C-56.24351384 111.31409562 -54.02080552 106.89734433 -51.78125 102.4296875 C-51.36387573 101.59398224 -50.94650146 100.75827698 -50.51647949 99.89724731 C-49.62980885 98.12322612 -48.74212963 96.34970871 -47.85351562 94.57666016 C-46.52959938 91.9340813 -45.20986036 89.28944936 -43.890625 86.64453125 C-39.68538062 78.23103575 -35.4246454 69.85371757 -31.01953125 61.54296875 C-25.56998635 51.25996586 -20.37208621 40.85597855 -15.1875 30.4375 C-14.26386438 28.58519045 -13.3400368 26.73297662 -12.41601562 24.88085938 C-10.7217209 21.48422861 -9.02854665 18.08704475 -7.33666992 14.68920898 C-4.89563059 9.79055238 -2.44767275 4.89534551 0 0 Z " fill="#A98DEA" transform="translate(328,368)"/>
<path d="M0 0 C6.02635762 3.23711048 11.77829256 6.72268934 17.4375 10.5625 C18.99856836 11.61347371 20.55977053 12.66424869 22.12109375 13.71484375 C22.91757324 14.25222168 23.71405273 14.78959961 24.53466797 15.34326172 C27.04860939 17.0326662 29.57148552 18.70785132 32.09765625 20.37890625 C32.91886963 20.92281006 33.74008301 21.46671387 34.58618164 22.02709961 C36.16905016 23.07492751 37.7528409 24.12136392 39.33764648 25.16625977 C40.05122314 25.63990967 40.7647998 26.11355957 41.5 26.6015625 C42.1290625 27.01744629 42.758125 27.43333008 43.40625 27.86181641 C45.51645639 29.36882961 46.84225804 30.3844668 47.49902344 32.94726562 C47.61793945 33.75873047 47.73685547 34.57019531 47.859375 35.40625 C48.07364136 36.82877075 48.07364136 36.82877075 48.29223633 38.2800293 C48.44329834 39.34261963 48.59436035 40.40520996 48.75 41.5 C49.00269653 43.20700073 49.00269653 43.20700073 49.26049805 44.94848633 C49.85100308 48.9641836 50.42693103 52.98178711 51 57 C51.21885006 58.52914309 51.4377646 60.05827695 51.65673828 61.58740234 C52.63002118 68.39003044 53.60142921 75.19291232 54.56396484 81.99707031 C55.97969847 91.98527099 57.43534835 101.96640013 58.94140625 111.94140625 C59.10294693 113.01367966 59.26448761 114.08595306 59.43092346 115.1907196 C60.22013881 120.42580591 61.01426729 125.66007686 61.81567383 130.89331055 C62.10384579 132.79864005 62.39185846 134.70399366 62.6796875 136.609375 C62.81375504 137.47313248 62.94782257 138.33688995 63.08595276 139.2268219 C63.73157402 143.53011285 64.14935185 147.63256312 64 152 C59.79857233 150.50917083 56.04543468 148.41404259 52.18359375 146.21875 C50.06236718 144.97340728 50.06236718 144.97340728 47.92828369 144.17236328 C46 143 46 143 45.29217529 141.20068359 C45.18383362 140.48219238 45.07549194 139.76370117 44.96386719 139.0234375 C43.98737623 133.69297067 42.34673833 128.74015703 40.578125 123.625 C40.24167465 122.63940094 39.9052243 121.65380188 39.55857849 120.63833618 C38.46016264 117.42401726 37.3550753 114.2120348 36.25 111 C35.47975525 108.74934677 34.70998555 106.49853092 33.94067383 104.24755859 C31.99767795 98.5655036 30.04959043 92.88521017 28.09991455 87.20544434 C23.04611144 72.47731429 18.01370957 57.74182456 13 43 C12.71302246 42.15687256 12.42604492 41.31374512 12.13037109 40.44506836 C10.40864744 35.38446132 8.69417229 30.32149519 6.98965454 25.25506592 C6.46227105 23.69027086 5.93284964 22.1261609 5.4012146 20.56280518 C4.6717789 18.41618598 3.95015498 16.26709168 3.23046875 14.1171875 C2.82207764 12.90659668 2.41368652 11.69600586 1.99291992 10.44873047 C0.98998806 6.96522531 0.42443882 3.59609167 0 0 Z " fill="#8260D2" transform="translate(132,145)"/>
<path d="M0 0 C0.66 0 1.32 0 2 0 C8.71476004 19.58122263 15.41883838 39.16497899 21.9375 58.8125 C26.50125304 72.5626751 31.13777019 86.28715797 35.8125 100 C36.12138153 100.90690582 36.43026306 101.81381165 36.74850464 102.74819946 C37.6502942 105.39499354 38.55333935 108.04135487 39.45703125 110.6875 C39.74627975 111.5353154 40.03552826 112.3831308 40.33354187 113.25663757 C41.86477054 117.7314103 43.41956572 122.19659878 45.00537109 126.65234375 C45.33091476 127.56991455 45.65645844 128.48748535 45.99186707 129.43286133 C46.61604511 131.18809284 47.24420361 132.94191548 47.87690735 134.6940918 C48.15560165 135.47824463 48.43429596 136.26239746 48.72143555 137.0703125 C48.96895065 137.75883301 49.21646576 138.44735352 49.47148132 139.15673828 C50 141 50 141 50 144 C46.24455096 143.52058097 42.65691583 142.92507021 38.9921875 141.9765625 C33.34824468 140.70926022 27.82489898 140.70648283 22.0625 140.75 C21.04220703 140.74226562 20.02191406 140.73453125 18.97070312 140.7265625 C17.96072266 140.72914063 16.95074219 140.73171875 15.91015625 140.734375 C15.01433838 140.73663086 14.11852051 140.73888672 13.19555664 140.74121094 C8.7476224 141.10142259 4.37583744 142.12483251 0 143 C0 95.81 0 48.62 0 0 Z " fill="#4F3BC2" transform="translate(129,144)"/>
<path d="M0 0 C0.07008127 21.14891212 0.12298388 42.29780509 0.15543652 63.44680977 C0.17090535 73.26666266 0.19199522 83.08644341 0.22631836 92.90625 C0.25622017 101.4651996 0.27557488 110.02409695 0.28226548 118.58309734 C0.28617641 123.11502544 0.29536802 127.64680405 0.31719017 132.17868423 C0.33756765 136.44515133 0.34383125 140.71140749 0.33932304 144.97791862 C0.34014768 146.54281575 0.34610588 148.10771999 0.35761642 149.672575 C0.37258072 151.81209535 0.36893986 153.95082319 0.36076355 156.09036255 C0.36352893 157.28684984 0.36629431 158.48333714 0.36914349 159.71608162 C-0.32032362 165.8496145 -3.06660403 169.49076861 -7.6875 173.375 C-8.49574219 174.06335938 -9.30398438 174.75171875 -10.13671875 175.4609375 C-10.75160156 175.96882812 -11.36648438 176.47671875 -12 177 C-12 174 -12 174 -10.46875 172.17578125 C-9.8190625 171.56089844 -9.169375 170.94601562 -8.5 170.3125 C-7.52546875 169.37857422 -7.52546875 169.37857422 -6.53125 168.42578125 C-6.0259375 167.95527344 -5.520625 167.48476563 -5 167 C-7.64 166.67 -10.28 166.34 -13 166 C-13.07123046 165.33315721 -13.14246092 164.66631441 -13.21584988 163.97926426 C-14.9517845 147.72797703 -16.68792991 131.47671233 -18.42430782 115.22547245 C-19.2640132 107.36639041 -20.10364813 99.50730085 -20.94311523 91.64819336 C-21.67508446 84.79548488 -22.40718787 77.94279075 -23.13945013 71.09011358 C-23.52690649 67.46416492 -23.9142972 63.83820927 -24.30152702 60.2122364 C-24.73458319 56.15717512 -25.16793905 52.10214591 -25.60131836 48.04711914 C-25.72863342 46.85452988 -25.85594849 45.66194061 -25.98712158 44.43321228 C-26.16588081 42.76127304 -26.16588081 42.76127304 -26.34825134 41.05555725 C-26.45920576 40.01702166 -26.57016018 38.97848606 -26.68447685 37.90847969 C-26.97358391 35.24350244 -27.27593649 32.58037166 -27.58131409 29.91722107 C-27.97653135 26.21957246 -28.10161369 22.65330038 -28.0625 18.9375 C-28.05347656 17.81214844 -28.04445313 16.68679687 -28.03515625 15.52734375 C-28.02355469 14.69332031 -28.01195312 13.85929688 -28 13 C-26.90945313 12.56300781 -26.90945313 12.56300781 -25.796875 12.1171875 C-19.23240822 9.44090489 -6.59806225 0 0 0 Z " fill="#A265E3" transform="translate(405,202)"/>
<path d="M0 0 C3.21851101 3.83647123 5.2376098 8.22398211 7.43969727 12.68408203 C7.87583344 13.5592749 8.3119696 14.43446777 8.76132202 15.33618164 C9.70595283 17.23304358 10.6487343 19.13082735 11.58987617 21.02942276 C13.07811234 24.0314255 14.57133518 27.03089951 16.06590271 30.02975464 C19.23590797 36.39261591 22.39964056 42.75858431 25.5625 49.125 C29.23068303 56.5085078 32.90140058 63.89073178 36.57887077 71.26961899 C38.05231068 74.22949702 39.52092446 77.19173745 40.98939514 80.15408325 C41.88926 81.96107531 42.78934847 83.76795604 43.68969727 85.57470703 C44.09857681 86.40279877 44.50745636 87.2308905 44.9287262 88.08407593 C45.30577698 88.83831848 45.68282776 89.59256104 46.07130432 90.36965942 C46.39740975 91.02631151 46.72351519 91.6829636 47.0595026 92.35951424 C48.01160841 94.18611116 48.01160841 94.18611116 50 96 C43.25108963 95.70752284 40.31931071 94.30138307 35.6875 89.5 C34.5572001 88.39196234 33.42435338 87.28651711 32.2890625 86.18359375 C31.73379883 85.63815918 31.17853516 85.09272461 30.60644531 84.53076172 C28.36823274 82.39799685 25.98508835 80.48127573 23.5625 78.5625 C17.84926485 73.97687705 12.54798063 69.00254458 7.20703125 63.99609375 C2.51025493 59.59464401 -2.33423537 55.38743836 -7.27734375 51.265625 C-14.44569666 45.25392638 -20.98138794 39.19685887 -27 32 C-24.61599288 28.89868101 -22.27562048 26.22550767 -19.25 23.75 C-11.24442396 16.85837239 -5.40747102 9.04061561 0 0 Z " fill="#7B5FC6" transform="translate(218,391)"/>
<path d="M0 0 C5.06171634 0.3735584 7.68120084 3.09763623 11.125 6.5 C12.28274952 7.60798905 13.44293824 8.71343459 14.60546875 9.81640625 C15.17958496 10.36184082 15.75370117 10.90727539 16.34521484 11.46923828 C18.62048305 13.57397886 21.01256681 15.50833093 23.4375 17.4375 C29.1414486 22.01566927 34.43481285 26.98061611 39.765625 31.98046875 C43.43009391 35.41511404 47.1832415 38.73577893 51 42 C51.67160156 42.5775 52.34320313 43.155 53.03515625 43.75 C54.68779307 45.16936204 56.34353732 46.58510479 58 48 C56.73203738 51.80388786 55.55237108 52.05814669 52.125 54 C45.37174582 58.12257477 40.39033572 63.26742074 35 69 C34.34 69.66 33.68 70.32 33 71 C32.69521729 70.33508545 32.39043457 69.6701709 32.07641602 68.98510742 C30.57569272 65.71742581 29.07058325 62.4517897 27.5625 59.1875 C27.28110168 58.57829712 26.99970337 57.96909424 26.70977783 57.34143066 C23.03534234 49.39958502 19.29155942 41.49478515 15.45703125 33.62890625 C15.07609818 32.8474675 14.6951651 32.06602875 14.3026886 31.26091003 C12.42526122 27.41440606 10.54127173 23.5712283 8.65063477 19.73120117 C7.95196054 18.3051881 7.25331034 16.87916325 6.5546875 15.453125 C6.2395369 14.81762222 5.92438629 14.18211945 5.59968567 13.52735901 C3.43877801 9.10792188 1.6729299 4.62692648 0 0 Z " fill="#B998F3" transform="translate(268,26)"/>
<path d="M0 0 C0.33 0 0.66 0 1 0 C1.11861893 1.18840988 1.23723785 2.37681976 1.35945129 3.60124207 C2.49111902 14.93841206 3.62334307 26.27552639 4.75607777 37.61258984 C5.33806061 43.43758194 5.91986408 49.26259184 6.5012207 55.08764648 C7.06319157 60.71830459 7.62559352 66.34891947 8.1883812 71.979496 C8.40895675 74.1865652 8.62942863 76.39364475 8.8497963 78.60073471 C9.8798014 88.91360694 10.91072229 99.22622177 11.99365234 109.53369141 C12.06678367 110.23120294 12.13991499 110.92871447 12.21526241 111.64736271 C12.53874837 114.7279237 12.86543648 117.8080879 13.19746399 120.88774109 C13.36015022 122.42311272 13.36015022 122.42311272 13.52612305 123.98950195 C13.66512276 125.27797783 13.66512276 125.27797783 13.80693054 126.59248352 C14.0043778 129.05458983 14 131.52998929 14 134 C18.95 134 23.9 134 29 134 C29 134.33 29 134.66 29 135 C27.74445313 135.04898438 26.48890625 135.09796875 25.1953125 135.1484375 C23.50519032 135.22355404 21.81508709 135.29909789 20.125 135.375 C18.89136719 135.42140625 18.89136719 135.42140625 17.6328125 135.46875 C16.3953125 135.52675781 16.3953125 135.52675781 15.1328125 135.5859375 C14.38918457 135.6173584 13.64555664 135.6487793 12.87939453 135.68115234 C8.54373691 136.16125823 4.27744854 137.14451029 0 138 C0 92.46 0 46.92 0 0 Z " fill="#6453CC" transform="translate(129,149)"/>
<path d="M0 0 C0.99 0.33 1.98 0.66 3 1 C-2.32175343 5.9305994 -7.64726788 10.77694214 -13.3125 15.3125 C-19.05051142 19.94072411 -24.39249286 24.9408311 -29.765625 29.98046875 C-32.86980848 32.88996789 -36.02583074 35.72879606 -39.2578125 38.49609375 C-40.50166571 39.56982354 -41.72348505 40.66929689 -42.9296875 41.78515625 C-43.55101562 42.35105469 -44.17234375 42.91695313 -44.8125 43.5 C-45.35519531 44.0053125 -45.89789063 44.510625 -46.45703125 45.03125 C-46.96621094 45.3509375 -47.47539062 45.670625 -48 46 C-48.99 45.67 -49.98 45.34 -51 45 C-46.02753937 40.43741682 -41.01850623 35.96950202 -35.75 31.75 C-29.99341473 27.09573957 -24.6259471 22.07659265 -19.23046875 17.015625 C-16.15030965 14.1285877 -13.01605341 11.31562205 -9.80859375 8.5703125 C-8.46507755 7.40380383 -7.14871018 6.20587483 -5.84765625 4.9921875 C-5.13480469 4.33476562 -4.42195313 3.67734375 -3.6875 3 C-3.05199219 2.401875 -2.41648437 1.80375 -1.76171875 1.1875 C-1.18035156 0.795625 -0.59898437 0.40375 0 0 Z " fill="#A270E4" transform="translate(389,379)"/>
<path d="M0 0 C1.084021 0.04713135 2.16804199 0.0942627 3.28491211 0.14282227 C5.03964844 0.21533203 5.03964844 0.21533203 6.82983398 0.28930664 C8.67738281 0.37341797 8.67738281 0.37341797 10.56225586 0.45922852 C11.79782227 0.51143555 13.03338867 0.56364258 14.30639648 0.61743164 C17.37107777 0.74759185 20.43547199 0.88257197 23.49975586 1.02172852 C23.49975586 1.35172852 23.49975586 1.68172852 23.49975586 2.02172852 C15.90975586 2.02172852 8.31975586 2.02172852 0.49975586 2.02172852 C2.47975586 4.33172852 4.45975586 6.64172852 6.49975586 9.02172852 C6.16975586 9.68172852 5.83975586 10.34172852 5.49975586 11.02172852 C4.18088814 9.92517563 2.86985529 8.81919429 1.56225586 7.70922852 C0.83135742 7.0943457 0.10045898 6.47946289 -0.65258789 5.84594727 C-2.50024414 4.02172852 -2.50024414 4.02172852 -3.50024414 1.02172852 C-2.50024414 0.02172852 -2.50024414 0.02172852 0 0 Z " fill="#C8CAF4" transform="translate(131.500244140625,366.978271484375)"/>
<path d="M0 0 C0.66 0.33 1.32 0.66 2 1 C-1.47492835 4.56998718 -4.99651219 8.09004568 -8.6875 11.4375 C-9.22761719 11.93121094 -9.76773437 12.42492187 -10.32421875 12.93359375 C-12 14 -12 14 -16 14 C-16 12.68 -16 11.36 -16 10 C-15.01 10.495 -15.01 10.495 -14 11 C-11.73080676 11.23226189 -11.73080676 11.23226189 -9.8125 8.875 C-9.38195312 8.42511719 -8.95140625 7.97523438 -8.5078125 7.51171875 C-5.83199339 4.82896747 -2.90149463 2.4332419 0 0 Z " fill="#7E79DA" transform="translate(285,471)"/>
<path d="M0 0 C0.66 0.33 1.32 0.66 2 1 C-8.64114182 11.88989579 -8.64114182 11.88989579 -13 15 C-13.66 15 -14.32 15 -15 15 C-13.4614092 11.19263971 -11.12165284 9.06130455 -8.0625 6.375 C-7.18722656 5.59898437 -6.31195313 4.82296875 -5.41015625 4.0234375 C-3 2 -3 2 0 0 Z " fill="#8971DD" transform="translate(319,441)"/>
<path d="M0 0 C0.99 0.33 1.98 0.66 3 1 C-2.94 6.445 -2.94 6.445 -9 12 C-9.99 11.67 -10.98 11.34 -12 11 C-8.04 7.37 -4.08 3.74 0 0 Z " fill="#8074D4" transform="translate(299,458)"/>
<path d="M0 0 C0.66 0.33 1.32 0.66 2 1 C-2.64172645 5.90282356 -7.49280079 10.09489511 -13 14 C-12.44976705 10.26334338 -11.05497256 8.81553383 -8.1875 6.4375 C-7.15689453 5.56931641 -7.15689453 5.56931641 -6.10546875 4.68359375 C-4.09959307 3.0796375 -2.06506535 1.52675618 0 0 Z " fill="#916DDF" transform="translate(335,427)"/>
<path d="M0 0 C3.90478455 1.61928269 6.56172556 4.19326046 9.625 7.0625 C13.04209753 10.41533647 13.04209753 10.41533647 17 13 C17 13.66 17 14.32 17 15 C14.18763616 13.7080083 12.03181101 12.31751572 9.765625 10.21484375 C8.90517578 9.41916992 8.90517578 9.41916992 8.02734375 8.60742188 C7.44082031 8.05634766 6.85429687 7.50527344 6.25 6.9375 C5.64800781 6.38255859 5.04601562 5.82761719 4.42578125 5.25585938 C2.92768667 3.86137451 1.46087426 2.43343009 0 1 C0 0.67 0 0.34 0 0 Z " fill="#E3E5FD" transform="translate(139,378)"/>
<path d="M0 0 C-1.4258086 3.45195767 -3.09746334 5.1014256 -6.125 7.25 C-7.21167969 8.03117187 -7.21167969 8.03117187 -8.3203125 8.828125 C-8.87460937 9.21484375 -9.42890625 9.6015625 -10 10 C-8.68515589 7.09217167 -7.26624689 4.99358442 -5 2.75 C-4.484375 2.22921875 -3.96875 1.7084375 -3.4375 1.171875 C-2 0 -2 0 0 0 Z " fill="#AE72E9" transform="translate(402,369)"/>
</svg>
