<?xml version="1.0" encoding="UTF-8"?>
<svg version="1.1" xmlns="http://www.w3.org/2000/svg" width="512" height="512">
<path d="M0 0 C0.66 0 1.32 0 2 0 C2.26451462 1.26516953 2.52902924 2.53033905 2.80155945 3.83384705 C5.30927935 15.82372533 7.8243013 27.81205222 10.34627056 39.79894161 C11.6422508 45.9598571 12.93575486 52.12126978 14.22338867 58.28393555 C15.46877951 64.24395168 16.72095045 70.20250815 17.97760963 76.16015816 C18.4531539 78.42033928 18.92635419 80.68101504 19.39703941 82.94221306 C22.84056886 99.47416775 26.35732015 115.97471247 33.1875 131.5 C33.7599646 132.81291016 33.7599646 132.81291016 34.34399414 134.15234375 C42.40742535 152.19400513 53.43432845 167.67944656 67 182 C67.88042969 182.94488281 68.76085937 183.88976562 69.66796875 184.86328125 C90.37687796 206.64733067 117.71161709 221.49110671 146.69360352 228.91650391 C147.68765733 229.17310602 148.68171114 229.42970814 149.70588779 229.69408607 C160.41648204 232.41964827 171.20758467 234.7167883 182.02734375 236.9609375 C184.12449781 237.40027525 186.22154673 237.84011518 188.3184967 238.28042603 C193.75052754 239.4196596 199.18392709 240.55222011 204.61767578 241.68322754 C210.19715925 242.84585928 215.77527212 244.01502999 221.35351562 245.18359375 C232.23437156 247.46200451 243.11668988 249.73334332 254 252 C254 252.66 254 253.32 254 254 C252.73483047 254.26451462 251.46966095 254.52902924 250.16615295 254.80155945 C238.17627467 257.30927935 226.18794778 259.8243013 214.20105839 262.34627056 C208.0401429 263.6422508 201.87873022 264.93575486 195.71606445 266.22338867 C189.75604832 267.46877951 183.79749185 268.72095045 177.83984184 269.97760963 C175.57966072 270.4531539 173.31898496 270.92635419 171.05778694 271.39703941 C154.52583225 274.84056886 138.02528753 278.35732015 122.5 285.1875 C121.62472656 285.56914307 120.74945313 285.95078613 119.84765625 286.34399414 C101.80599487 294.40742535 86.32055344 305.43432845 72 319 C71.05511719 319.88042969 70.11023438 320.76085937 69.13671875 321.66796875 C47.35266933 342.37687796 32.50889329 369.71161709 25.08349609 398.69360352 C24.82689398 399.68765733 24.57029186 400.68171114 24.30591393 401.70588779 C21.58035173 412.41648204 19.2832117 423.20758467 17.0390625 434.02734375 C16.59972475 436.12449781 16.15988482 438.22154673 15.71957397 440.3184967 C14.5803404 445.75052754 13.44777989 451.18392709 12.31677246 456.61767578 C11.15414072 462.19715925 9.98497001 467.77527212 8.81640625 473.35351562 C6.53799549 484.23437156 4.26665668 495.11668988 2 506 C1.34 506 0.68 506 0 506 C-0.26451462 504.73483047 -0.52902924 503.46966095 -0.80155945 502.16615295 C-3.30927935 490.17627467 -5.8243013 478.18794778 -8.34627056 466.20105839 C-9.6422508 460.0401429 -10.93575486 453.87873022 -12.22338867 447.71606445 C-13.46877951 441.75604832 -14.72095045 435.79749185 -15.97760963 429.83984184 C-16.4531539 427.57966072 -16.92635419 425.31898496 -17.39703941 423.05778694 C-20.84056886 406.52583225 -24.35732015 390.02528753 -31.1875 374.5 C-31.56914307 373.62472656 -31.95078613 372.74945313 -32.34399414 371.84765625 C-40.40742535 353.80599487 -51.43432845 338.32055344 -65 324 C-65.88042969 323.05511719 -66.76085937 322.11023438 -67.66796875 321.13671875 C-88.37687796 299.35266933 -115.71161709 284.50889329 -144.69360352 277.08349609 C-145.68765733 276.82689398 -146.68171114 276.57029186 -147.70588779 276.30591393 C-158.41648204 273.58035173 -169.20758467 271.2832117 -180.02734375 269.0390625 C-182.12449781 268.59972475 -184.22154673 268.15988482 -186.3184967 267.71957397 C-191.75052754 266.5803404 -197.18392709 265.44777989 -202.61767578 264.31677246 C-208.19715925 263.15414072 -213.77527212 261.98497001 -219.35351562 260.81640625 C-230.23437156 258.53799549 -241.11668988 256.26665668 -252 254 C-252 253.34 -252 252.68 -252 252 C-250.74149231 251.73770599 -249.48298462 251.47541199 -248.18634033 251.20516968 C-236.24114315 248.71439518 -224.29791876 246.21434585 -212.3564949 243.70554161 C-206.2193996 242.41648542 -200.08168866 241.13054116 -193.94238281 239.85205078 C-188.00146259 238.614748 -182.06240658 237.36882472 -176.12447357 236.11726761 C-173.87527668 235.6447082 -171.62545842 235.17509492 -169.37497711 234.70869064 C-143.01304031 229.26066972 -143.01304031 229.26066972 -117.875 219.8125 C-117.06063477 219.43577148 -116.24626953 219.05904297 -115.40722656 218.67089844 C-75.32832495 199.64698653 -43.09062117 165.24376835 -27.86636353 123.42469788 C-25.98597302 118.11820861 -24.48018205 112.75778615 -23.08349609 107.30639648 C-22.82689398 106.31234267 -22.57029186 105.31828886 -22.30591393 104.29411221 C-19.58035173 93.58351796 -17.2832117 82.79241533 -15.0390625 71.97265625 C-14.59972475 69.87550219 -14.15988482 67.77845327 -13.71957397 65.6815033 C-12.5803404 60.24947246 -11.44777989 54.81607291 -10.31677246 49.38232422 C-9.15414072 43.80284075 -7.98497001 38.22472788 -6.81640625 32.64648438 C-4.53799549 21.76562844 -2.26665668 10.88331012 0 0 Z " fill="#B000FF" transform="translate(255,3)"/>
</svg>
