<?xml version="1.0" encoding="UTF-8"?>
<svg version="1.1" xmlns="http://www.w3.org/2000/svg" width="512" height="512">
<path d="M0 0 C0.66 0 1.32 0 2 0 C2.08468033 0.53837494 2.16936066 1.07674988 2.25660706 1.63143921 C13.10480251 85.81576181 13.10480251 85.81576181 51 160 C51.804375 161.04800781 51.804375 161.04800781 52.625 162.1171875 C61.84823748 173.60011816 75.02092917 181.45874302 88 188 C88.67450195 188.3412793 89.34900391 188.68255859 90.04394531 189.03417969 C130.68811541 209.19229917 178.77302101 214.1029254 223 221 C223 221.66 223 222.32 223 223 C222.39089783 223.09498779 221.78179565 223.18997559 221.15423584 223.2878418 C136.28506404 233.98316871 136.28506404 233.98316871 62 273 C61.3296875 273.52722656 60.659375 274.05445313 59.96875 274.59765625 C15.11323457 310.82026494 9.33598955 391.45436019 2 444 C1.34 444 0.68 444 0 444 C-0.08468033 443.46162506 -0.16936066 442.92325012 -0.25660706 442.36856079 C-11.10480251 358.18423819 -11.10480251 358.18423819 -49 284 C-49.804375 282.95199219 -49.804375 282.95199219 -50.625 281.8828125 C-59.36044141 271.00718794 -71.77218354 263.3448781 -84 257 C-85.07765625 256.42894531 -86.1553125 255.85789062 -87.265625 255.26953125 C-127.67566282 235.11064252 -175.80238996 229.75357508 -220 223 C-220 222.34 -220 221.68 -220 221 C-219.4034259 220.90501221 -218.80685181 220.81002441 -218.19219971 220.7121582 C-133.84914698 209.81529733 -133.84914698 209.81529733 -60 171 C-59.41476563 170.55785156 -58.82953125 170.11570313 -58.2265625 169.66015625 C-46.93901516 160.94277814 -39.31518052 147.53049307 -33 135 C-32.48808105 133.98824707 -32.48808105 133.98824707 -31.96582031 132.95605469 C-11.9729495 92.64507018 -6.15132512 44.06022003 0 0 Z " fill="#C495EA" transform="translate(255,34)"/>
</svg>
