<?xml version="1.0" encoding="UTF-8"?>
<svg version="1.1" xmlns="http://www.w3.org/2000/svg" width="512" height="512">
<path d="M0 0 C2.71031892 2.71031892 2.85666062 5.5318629 3.48658752 9.17443848 C3.62234804 9.92202628 3.75810855 10.66961408 3.89798301 11.43985605 C4.35303942 13.95665483 4.79668933 16.47533256 5.24047852 18.99414062 C5.56357959 20.79424739 5.88738791 22.59422734 6.21185303 24.39408875 C6.91000823 28.27563761 7.60311414 32.15804282 8.29236031 36.04118347 C9.38132735 42.17620643 10.48128322 48.30922709 11.58274841 54.4420166 C13.32296407 64.13891771 15.05560819 73.83715423 16.78512186 83.53596926 C19.88390426 100.91234202 22.99417905 118.28665808 26.10916466 135.66013288 C27.20290975 141.76219399 28.29291607 147.86490813 29.37989628 153.9681778 C30.05550898 157.75874947 30.7335757 161.54887933 31.41223145 165.33890724 C31.72736414 167.10200987 32.04141334 168.86530654 32.35432243 170.62880516 C32.78019481 173.02823802 33.20982141 175.42696876 33.64039612 177.82556152 C33.76452033 178.53041514 33.88864454 179.23526875 34.0165301 179.96148157 C34.66091164 183.58862537 34.66091164 183.58862537 36 187 C36.45101074 186.67427002 36.90202148 186.34854004 37.36669922 186.01293945 C38.32600342 185.32010864 38.32600342 185.32010864 39.3046875 184.61328125 C40.02406494 184.0937085 40.74344238 183.57413574 41.48461914 183.03881836 C43.10090731 181.87154498 44.71728339 180.70439331 46.33374023 179.53735352 C50.42633096 176.5823616 54.51778764 173.62584311 58.60546875 170.6640625 C67.96254415 163.88772062 77.36606682 157.18221593 86.81640625 150.53662109 C90.73503222 147.77903703 94.64839009 145.01398841 98.5625 142.25 C100.00128053 141.23434446 101.44008052 140.2187165 102.87890625 139.203125 C103.90886719 138.47609375 104.93882812 137.7490625 106 137 C106.33 137.66 106.66 138.32 107 139 C98.64344459 151.31138609 90.22871867 163.57937935 81.72070312 175.78662109 C73.36197671 187.78020175 65.07285156 199.81193106 57 212 C58.42987086 212.16683666 58.42987086 212.16683666 59.88862801 212.33704376 C70.11068229 213.55652687 80.2436896 215.12593771 90.39013672 216.85742188 C92.06406102 217.14045612 93.73803304 217.42320824 95.41204834 217.70570374 C99.90341379 218.46466282 104.39400635 219.22809833 108.88438559 219.99286842 C111.69316403 220.47104429 114.50210385 220.94826047 117.31110001 221.42515564 C127.11769782 223.09013659 136.92363932 224.75892456 146.72900391 226.43115234 C155.86441049 227.98901322 165.00126978 229.53814199 174.13881862 231.08338308 C182.00250362 232.41361291 189.86512553 233.75000274 197.726946 235.09120798 C202.41542322 235.89093231 207.10430117 236.68809703 211.79427719 237.47898865 C216.19015829 238.22048978 220.5846718 238.96960978 224.97823334 239.72472954 C226.59270867 240.00085065 228.20766106 240.27419832 229.82310104 240.54461861 C232.0211788 240.91300563 234.21734382 241.29119593 236.41329956 241.67199707 C238.25982022 241.98611919 238.25982022 241.98611919 240.14364433 242.30658722 C243 243 243 243 245 245 C206.69449399 252.23173277 168.37071198 259.36624883 130.04144573 266.47084999 C128.67599618 266.72395127 127.31054723 266.97705579 125.94509888 267.23016357 C125.26951024 267.35539457 124.59392161 267.48062557 123.89786059 267.60965145 C119.10511288 268.49825898 114.3127222 269.38877556 109.52047729 270.28009033 C102.97172873 271.4980651 96.42228283 272.71223689 89.87236595 273.92391586 C87.41861501 274.37843555 84.96509141 274.83418442 82.51180458 275.29120255 C79.12924416 275.9210956 75.7458933 276.54655582 72.36230469 277.17089844 C71.3643711 277.35778543 70.36643751 277.54467243 69.33826351 277.73722267 C68.42409444 277.90496885 67.50992537 278.07271503 66.5680542 278.24554443 C65.77731884 278.39219418 64.98658348 278.53884392 64.17188644 278.68993759 C62 279 62 279 58 279 C64.64906288 288.51243051 71.30004262 298.02331927 78 307.5 C87.74085949 321.28139095 97.41753865 335.10796608 107 349 C106.67 349.66 106.34 350.32 106 351 C95.37952199 343.77066025 84.80190046 336.48503927 74.28759766 329.10205078 C68.44762542 325.00412546 62.57785986 320.95251626 56.68847656 316.92602539 C51.48658801 313.35956896 46.35181669 309.70392453 41.25048828 305.99511719 C38.85137335 303.91089838 38.85137335 303.91089838 36 303 C35.83784595 303.87445865 35.67569189 304.74891729 35.50862408 305.64987469 C31.55519742 326.96868301 27.59862539 348.28690551 23.63859081 369.60448742 C21.72359137 379.91369399 19.80964054 390.22309314 17.89819336 400.53295898 C16.23135927 409.5234282 14.56252189 418.5135229 12.89132005 427.50318128 C12.00724877 432.25912334 11.12415312 437.01524171 10.2434597 441.77181053 C9.41282269 446.25785053 8.57948803 450.74338135 7.74416924 455.22855186 C7.4396671 456.86610365 7.13611248 458.50383199 6.83362961 460.14175797 C5.10704904 469.48762135 3.23493589 478.7596766 1 488 C0.67 488 0.34 488 0 488 C-6.9396335 448.64549727 -13.76199639 409.27183446 -20.5186727 369.88557208 C-21.77556782 362.55909528 -23.03370741 355.23283233 -24.29190373 347.9065789 C-26.8625619 332.93794105 -29.431809 317.96906136 -32 303 C-35.69863308 303 -36.41790461 303.83115069 -39.3125 306.0625 C-44.9951155 310.31315669 -50.81545047 314.32805585 -56.6875 318.3125 C-57.65002686 318.96669922 -58.61255371 319.62089844 -59.60424805 320.29492188 C-61.5186637 321.59602175 -63.43329165 322.89680932 -65.34814453 324.19726562 C-68.94655064 326.64346621 -72.53830627 329.09916486 -76.125 331.5625 C-76.74093018 331.9848291 -77.35686035 332.4071582 -77.99145508 332.84228516 C-81.80137953 335.46255715 -85.58580667 338.11667307 -89.359375 340.7890625 C-90.27444824 341.43544678 -91.18952148 342.08183105 -92.13232422 342.74780273 C-93.9337573 344.02182675 -95.73235905 345.29986551 -97.52783203 346.58227539 C-98.34106934 347.1571167 -99.15430664 347.73195801 -99.9921875 348.32421875 C-100.71776855 348.84072998 -101.44334961 349.35724121 -102.19091797 349.8894043 C-104 351 -104 351 -106 351 C-104.19733052 346.99182988 -101.68190428 343.47236918 -99.1875 339.875 C-98.70466553 339.17560303 -98.22183105 338.47620605 -97.72436523 337.75561523 C-93.53125569 331.70931597 -89.2325115 325.74185795 -84.91113281 319.78686523 C-79.72047873 312.63170341 -74.62131918 305.41426669 -69.53662109 298.18359375 C-66.77903703 294.26496778 -64.01398841 290.35160991 -61.25 286.4375 C-60.23434446 284.99871947 -59.2187165 283.55991948 -58.203125 282.12109375 C-57.47609375 281.09113281 -56.7490625 280.06117188 -56 279 C-57.13580002 278.8972728 -58.27160004 278.79454559 -59.44181824 278.68870544 C-66.99807413 277.84395836 -74.45756349 276.35717576 -81.9309082 274.98071289 C-83.63996347 274.66829124 -85.34906613 274.3561288 -87.05821228 274.04420471 C-91.67820149 273.20011915 -96.29743633 272.3519742 -100.91648126 271.50273824 C-104.77606164 270.79341742 -108.63596255 270.08584901 -112.49584931 269.37819761 C-121.59781014 267.70935973 -130.69911248 266.03696381 -139.80004883 264.36254883 C-149.18934478 262.63516439 -158.57989012 260.91469582 -167.97104388 259.19744307 C-176.0408147 257.72151383 -184.10971371 256.24088405 -192.17794484 254.75656122 C-196.99414237 253.87059665 -201.81066953 252.98653083 -206.62807655 252.10716438 C-211.15251032 251.28110313 -215.67583166 250.44920427 -220.19835854 249.61276817 C-221.85883938 249.30669319 -223.51970767 249.00271168 -225.18098068 248.70096588 C-227.44634747 248.28915894 -229.71020138 247.86985808 -231.97383118 247.44862366 C-233.87547012 247.09936876 -233.87547012 247.09936876 -235.81552601 246.7430582 C-238.53794201 246.1078156 -240.60194317 245.39726369 -243 244 C-237.82520658 242.65904217 -232.69404892 241.52577534 -227.42120361 240.62057495 C-226.70256881 240.49635953 -225.98393402 240.37214411 -225.24352241 240.24416459 C-222.85977539 239.83290265 -220.47531234 239.42596125 -218.09082031 239.01904297 C-216.37197106 238.72343688 -214.65316626 238.42757229 -212.93440247 238.13146973 C-208.28441772 237.33122939 -203.63378117 236.53484039 -198.98298359 235.73933935 C-195.09816748 235.07447273 -191.21368638 234.40766055 -187.32920623 233.74083436 C-178.16931685 232.16841741 -169.00890684 230.59906101 -159.84814453 229.03173828 C-150.39525058 227.41439052 -140.94315963 225.79241252 -131.4914639 224.1680783 C-123.37197952 222.77282872 -115.25205451 221.38016587 -107.13175845 219.98964798 C-102.28349077 219.15942209 -97.43538625 218.32827251 -92.58768463 217.49474716 C-88.03441129 216.71198551 -83.48059501 215.93246386 -78.92633629 215.15545654 C-77.25397597 214.8695826 -75.58180983 214.5825701 -73.90985298 214.29434586 C-71.63070274 213.90163743 -69.35089102 213.51302534 -67.07086182 213.12545776 C-65.79442936 212.90682508 -64.5179969 212.68819241 -63.20288467 212.46293449 C-60 212 -60 212 -56 212 C-66.65406852 196.32473212 -77.31529208 180.65440721 -88 165 C-88.90637207 163.67137939 -88.90637207 163.67137939 -89.83105469 162.31591797 C-91.59485954 159.73086814 -93.35975356 157.14656557 -95.125 154.5625 C-95.64545898 153.79953613 -96.16591797 153.03657227 -96.70214844 152.25048828 C-97.19489258 151.52974121 -97.68763672 150.80899414 -98.1953125 150.06640625 C-98.66227539 149.38336426 -99.12923828 148.70032227 -99.61035156 147.99658203 C-100.99783295 146.00311352 -102.42918037 144.04704714 -103.8671875 142.08984375 C-106 139 -106 139 -106 137 C-101.99182988 138.80266948 -98.47236918 141.31809572 -94.875 143.8125 C-94.17560303 144.29533447 -93.47620605 144.77816895 -92.75561523 145.27563477 C-86.70848545 149.46932028 -80.73973566 153.76805551 -74.78466797 158.09106445 C-69.71765916 161.7679273 -64.62194053 165.40010623 -59.5 169 C-50.60773461 175.25188198 -41.79869121 181.61733648 -33 188 C-31.54967415 183.19011634 -30.46956194 178.47266728 -29.62730408 173.51022339 C-29.50379422 172.78906503 -29.38028437 172.06790667 -29.25303179 171.32489502 C-28.84326933 168.92668695 -28.43909318 166.52757248 -28.03491211 164.12841797 C-27.74101614 162.40147218 -27.44677183 160.67458564 -27.15220642 158.94775391 C-26.35541112 154.27088266 -25.56342703 149.59320801 -24.77227092 144.91538 C-23.94284061 140.0165088 -23.10883596 135.11841658 -22.27528381 130.22024536 C-20.6974472 120.94443194 -19.1234864 111.66796544 -17.55102593 102.39123929 C-15.24237718 88.77238661 -12.92806301 75.15449651 -10.61355686 61.53663826 C-10.27203827 59.5272028 -9.93052081 57.51776715 -9.58900452 55.5083313 C-9.42226606 54.52731355 -9.25552761 53.5462958 -9.08373648 52.53555024 C-8.0927171 46.70401252 -7.10287219 40.87227695 -6.11406887 35.04036307 C-5.49929165 31.41488859 -4.88397142 27.78950639 -4.26856422 24.16413879 C-3.98329656 22.4827679 -3.69828606 20.80135335 -3.41355133 19.11989212 C-3.02493368 16.82508497 -2.63542511 14.5304307 -2.24571228 12.23580933 C-2.02800139 10.9516255 -1.81029051 9.66744167 -1.58598232 8.34434319 C-1.09686991 5.55286006 -0.57215332 2.77544297 0 0 Z " fill="#000000" transform="translate(255,12)"/>
</svg>
