<svg xmlns="http://www.w3.org/2000/svg" xmlns:xlink="http://www.w3.org/1999/xlink" width="2000" zoomAndPan="magnify" viewBox="0 0 1500 1499.999933" height="2000" preserveAspectRatio="xMidYMid meet" version="1.0"><defs><clipPath id="ceca7dbec2"><path d="M 64 168 L 1447.019531 168 L 1447.019531 1293 L 64 1293 Z M 64 168 " clip-rule="nonzero"/></clipPath></defs><path fill="#000000" d="M 594.507812 1118.742188 L 594.222656 1118.453125 Z M 594.507812 1118.742188 " fill-opacity="1" fill-rule="nonzero"/><path fill="#000000" d="M 1442.699219 778.851562 C 1442.753906 779.253906 1442.699219 779.65625 1442.753906 780.003906 C 1442.8125 780.347656 1442.929688 780.695312 1442.929688 781.039062 Z M 1442.699219 778.851562 " fill-opacity="1" fill-rule="nonzero"/><path fill="#000000" d="M 1383.46875 619.164062 C 1383.757812 619.625 1383.988281 620.140625 1384.335938 620.660156 C 1384.390625 620.71875 1384.449219 620.777344 1384.449219 620.832031 Z M 1383.46875 619.164062 " fill-opacity="1" fill-rule="nonzero"/><path fill="#1976d2" d="M 971.820312 639.332031 C 971.300781 639.332031 970.898438 639.332031 970.382812 639.332031 C 922.273438 639.332031 878.257812 656.503906 844.324219 684.859375 C 810.214844 713.671875 787.628906 754.359375 784.980469 800.460938 L 785.039062 800.460938 C 782.445312 847.832031 801.457031 891.742188 834.875 924.417969 C 870.019531 957.957031 917.550781 978.53125 969.921875 978.53125 C 970.554688 978.53125 971.1875 978.53125 971.761719 978.53125 C 971.761719 978.53125 971.820312 978.53125 971.878906 978.53125 C 972.511719 978.53125 973.144531 978.53125 973.78125 978.53125 C 1026.152344 978.53125 1073.683594 957.957031 1108.652344 924.476562 C 1142.070312 891.800781 1161.082031 847.832031 1158.488281 800.402344 C 1155.898438 754.359375 1133.371094 713.671875 1099.261719 684.859375 C 1065.789062 656.621094 1020.792969 639.332031 971.820312 639.332031 Z M 971.820312 639.332031 " fill-opacity="1" fill-rule="nonzero"/><g clip-path="url(#ceca7dbec2)"><path fill="#ff9800" d="M 1336.859375 1131.878906 C 1377.25 1087.679688 1408.707031 1034.488281 1427.71875 975.765625 L 1428.582031 972.710938 C 1440.277344 936.75 1447.019531 895.375 1447.019531 852.441406 C 1447.019531 832.789062 1445.460938 813.484375 1442.8125 794.582031 C 1434.054688 735.339844 1413.773438 682.148438 1384.335938 635.296875 C 1355.296875 589.367188 1319.921875 550.355469 1278.785156 518.484375 L 1277.75 517.738281 L 1277.863281 517.738281 L 844.726562 185.105469 C 816.378906 163.324219 768.734375 163.4375 737.5625 185.222656 C 706.050781 207.234375 702.476562 243.714844 730.476562 266.765625 L 730.421875 266.824219 L 910.519531 413.371094 L 360.714844 413.949219 C 315.3125 414.007812 271.699219 443.800781 263.058594 481.488281 C 254.1875 519.8125 284.953125 551.621094 332.195312 551.796875 L 332.195312 551.910156 L 610.46875 551.335938 L 111.878906 934.101562 C 65.039062 969.945312 49.945312 1029.648438 79.445312 1067.394531 C 109.402344 1105.832031 173.066406 1105.890625 220.425781 1067.625 L 491.4375 845.8125 C 491.4375 845.8125 487.464844 875.78125 487.808594 893.703125 L 487.695312 893.644531 C 488.039062 911.742188 493.800781 946.777344 502.441406 974.210938 C 522.320312 1035.929688 553.71875 1089.003906 594.507812 1133.378906 C 638.527344 1181.613281 691.875 1220.453125 751.792969 1247.195312 L 754.789062 1248.40625 C 815.976562 1276.066406 887.476562 1292.203125 962.71875 1292.203125 C 963.699219 1292.203125 964.675781 1292.203125 965.65625 1292.203125 C 965.714844 1292.203125 965.773438 1292.203125 965.828125 1292.203125 C 966.058594 1292.203125 966.347656 1292.203125 966.695312 1292.203125 C 1041.589844 1292.203125 1112.6875 1276.125 1176.925781 1247.425781 C 1239.667969 1219.128906 1292.902344 1180.171875 1336.515625 1132.285156 Z M 1243.699219 900.734375 C 1229.988281 937.097656 1209.824219 968.160156 1184.300781 993.917969 L 1184.183594 993.976562 C 1128.300781 1050.914062 1050.175781 1083.183594 965.542969 1083.300781 C 880.847656 1083.53125 802.667969 1051.488281 746.78125 994.667969 C 721.085938 968.851562 700.808594 937.671875 687.671875 902.980469 L 687.09375 901.195312 C 677.875 876.355469 672.574219 847.65625 672.574219 817.75 C 672.574219 774.414062 683.8125 733.726562 703.398438 698.285156 C 720.855469 667.28125 742.980469 641.117188 769.25 619.796875 L 769.769531 619.394531 C 824.042969 575.132812 893.121094 551.21875 965.425781 551.105469 C 1037.730469 550.988281 1106.867188 574.730469 1161.195312 618.816406 C 1188.851562 641.347656 1211.320312 668.03125 1227.566406 697.59375 C 1243.640625 725.949219 1254.359375 759.371094 1257.585938 794.929688 L 1257.640625 795.851562 C 1258.21875 802.132812 1258.5625 809.449219 1258.5625 816.828125 C 1258.621094 846.332031 1253.320312 874.511719 1243.699219 900.734375 Z M 1243.699219 900.734375 " fill-opacity="1" fill-rule="nonzero"/></g><path fill="#000000" d="M 1179.632812 1231.75 C 1178.769531 1232.152344 1177.847656 1232.382812 1176.925781 1232.785156 C 1176.753906 1232.84375 1176.578125 1232.960938 1176.40625 1233.074219 Z M 1179.632812 1231.75 " fill-opacity="1" fill-rule="nonzero"/></svg>