<svg xmlns="http://www.w3.org/2000/svg" xmlns:xlink="http://www.w3.org/1999/xlink" width="2000" zoomAndPan="magnify" viewBox="0 0 1500 1499.999933" height="2000" preserveAspectRatio="xMidYMid meet" version="1.0"><path fill="#5c8dbc" d="M 1324.589844 484.035156 C 1324.589844 462.320312 1319.914062 443.132812 1310.515625 426.664062 C 1301.296875 410.46875 1287.492188 396.894531 1268.964844 386.164062 C 1115.933594 297.960938 962.816406 210.023438 809.832031 121.730469 C 768.59375 97.929688 728.617188 98.796875 687.695312 122.941406 C 626.808594 158.847656 321.875 333.5 230.992188 386.113281 C 193.59375 407.769531 175.386719 440.914062 175.378906 483.992188 C 175.320312 661.394531 175.378906 838.757812 175.320312 1016.167969 C 175.328125 1037.390625 179.777344 1056.183594 188.757812 1072.414062 C 197.988281 1089.09375 212 1103.074219 230.964844 1114.042969 C 321.828125 1166.644531 626.761719 1341.265625 687.667969 1377.1875 C 728.636719 1401.375 768.613281 1402.230469 809.851562 1378.402344 C 962.835938 1290.101562 1116 1202.164062 1269.027344 1114 C 1288.003906 1103.027344 1301.988281 1089.046875 1311.253906 1072.367188 C 1320.203125 1056.183594 1324.652344 1037.34375 1324.652344 1016.078125 C 1324.652344 1016.078125 1324.652344 661.445312 1324.609375 484.039062 " fill-opacity="1" fill-rule="nonzero"/><path fill="#1a4674" d="M 751.730469 748.347656 L 188.765625 1072.40625 C 197.988281 1089.085938 212 1103.070312 230.964844 1114.039062 C 321.828125 1166.640625 626.761719 1341.261719 687.667969 1377.183594 C 728.636719 1401.371094 768.613281 1402.222656 809.847656 1378.394531 C 962.832031 1290.097656 1116 1202.160156 1269.027344 1113.996094 C 1288.003906 1103.023438 1301.988281 1089.042969 1311.253906 1072.363281 L 751.75 748.347656 " fill-opacity="1" fill-rule="nonzero"/><path fill="#1a4674" d="M 584.992188 844.332031 C 617.75 901.519531 679.332031 940.09375 749.976562 940.09375 C 821.074219 940.09375 882.996094 901.027344 915.597656 843.253906 L 751.730469 748.347656 L 584.992188 844.332031 " fill-opacity="1" fill-rule="nonzero"/><path fill="#1b598e" d="M 1324.589844 484.035156 C 1324.589844 462.320312 1319.914062 443.132812 1310.515625 426.664062 L 751.730469 748.347656 L 1311.234375 1072.363281 C 1320.183594 1056.179688 1324.636719 1037.339844 1324.636719 1016.074219 C 1324.636719 1016.074219 1324.636719 661.441406 1324.589844 484.035156 " fill-opacity="1" fill-rule="nonzero"/><path fill="#ffffff" d="M 1293.832031 771.5 L 1250.121094 771.5 L 1250.121094 815.199219 L 1206.367188 815.199219 L 1206.367188 771.5 L 1162.65625 771.5 L 1162.65625 727.800781 L 1206.367188 727.800781 L 1206.367188 684.101562 L 1250.121094 684.101562 L 1250.121094 727.800781 L 1293.832031 727.800781 L 1293.832031 771.5 " fill-opacity="1" fill-rule="nonzero"/><path fill="#ffffff" d="M 1134.28125 771.5 L 1090.574219 771.5 L 1090.574219 815.199219 L 1046.863281 815.199219 L 1046.863281 771.5 L 1003.152344 771.5 L 1003.152344 727.800781 L 1046.863281 727.800781 L 1046.863281 684.101562 L 1090.574219 684.101562 L 1090.574219 727.800781 L 1134.28125 727.800781 L 1134.28125 771.5 " fill-opacity="1" fill-rule="nonzero"/><path fill="#ffffff" d="M 915.597656 843.253906 C 882.996094 901.027344 821.074219 940.09375 749.976562 940.09375 C 679.332031 940.09375 617.75 901.519531 584.992188 844.332031 C 569.078125 816.546875 559.925781 784.402344 559.925781 750.054688 C 559.925781 645.121094 645.019531 560.058594 749.976562 560.058594 C 820.175781 560.058594 881.421875 598.140625 914.339844 654.742188 L 1080.453125 559.113281 C 1014.441406 445.148438 891.179688 368.484375 749.976562 368.484375 C 539.1875 368.484375 368.308594 539.328125 368.308594 750.054688 C 368.308594 819.199219 386.707031 884.03125 418.859375 939.960938 C 484.71875 1054.515625 608.34375 1131.664062 749.976562 1131.664062 C 891.898438 1131.664062 1015.699219 1054.199219 1081.445312 939.332031 L 915.597656 843.253906 " fill-opacity="1" fill-rule="nonzero"/></svg>