<svg xmlns="http://www.w3.org/2000/svg" xmlns:xlink="http://www.w3.org/1999/xlink" width="2000" zoomAndPan="magnify" viewBox="0 0 1500 1499.999933" height="2000" preserveAspectRatio="xMidYMid meet" version="1.0"><defs><clipPath id="7930152426"><path d="M 131.207031 131.207031 L 1368.707031 131.207031 L 1368.707031 1368.707031 L 131.207031 1368.707031 Z M 131.207031 131.207031 " clip-rule="nonzero"/></clipPath></defs><g clip-path="url(#7930152426)"><path fill="#eee400" d="M 1079.628906 1271.6875 C 971.667969 1271.6875 901.847656 1220.207031 867.816406 1152.886719 L 962.484375 1098.039062 C 987.433594 1138.777344 1019.78125 1168.652344 1077.128906 1168.652344 C 1125.265625 1168.652344 1156.003906 1144.570312 1156.003906 1111.328125 C 1156.003906 1061.359375 1089.304688 1041.78125 1042.230469 1021.636719 C 958.328125 985.921875 902.640625 941.050781 902.640625 846.332031 C 902.640625 759.136719 969.09375 692.707031 1072.996094 692.707031 C 1146.871094 692.707031 1200.085938 718.449219 1238.25 785.691406 L 1147.714844 843.855469 C 1127.789062 808.140625 1106.207031 794.035156 1072.96875 794.035156 C 1038.886719 794.035156 1017.28125 815.640625 1017.28125 843.855469 C 1017.28125 878.753906 1038.863281 892.859375 1088.734375 914.46875 C 1193.230469 959.238281 1272.304688 994.457031 1272.304688 1109.671875 C 1272.355469 1214.390625 1190.136719 1271.6875 1079.628906 1271.6875 Z M 811.832031 1096.40625 C 811.832031 1216.867188 737.632812 1280.546875 634.621094 1280.546875 C 541.5625 1280.546875 485.824219 1244.957031 458.402344 1183.082031 L 456.792969 1183.082031 L 551.386719 1116.949219 C 569.652344 1149.296875 586.113281 1172.265625 625.960938 1172.265625 C 664.199219 1172.265625 688.082031 1152.910156 688.082031 1094.796875 L 688.082031 688.082031 L 811.832031 688.082031 Z M 131.207031 1368.707031 L 1368.707031 1368.707031 L 1368.707031 131.207031 L 131.207031 131.207031 Z M 131.207031 1368.707031 " fill-opacity="1" fill-rule="evenodd"/></g></svg>