<svg xmlns="http://www.w3.org/2000/svg" xmlns:xlink="http://www.w3.org/1999/xlink" width="2000" zoomAndPan="magnify" viewBox="0 0 1500 1499.999933" height="2000" preserveAspectRatio="xMidYMid meet" version="1.0"><defs><clipPath id="99cae7e6b3"><path d="M 583 89.433594 L 1050 89.433594 L 1050 855 L 583 855 Z M 583 89.433594 " clip-rule="nonzero"/></clipPath></defs><path fill="#4e7896" d="M 583.308594 1101.628906 C 583.308594 1101.628906 532.988281 1132.234375 618.289062 1140.988281 C 720.976562 1154.082031 775.671875 1151.914062 889.324219 1130.066406 C 912.222656 1144.085938 936.265625 1155.746094 961.453125 1165.046875 C 705.757812 1274.367188 382.148438 1158.5 583.265625 1101.628906 Z M 550.578125 959.539062 C 550.578125 959.539062 495.921875 1001.066406 581.179688 1009.863281 C 692.664062 1020.785156 780.09375 1022.953125 930.972656 992.390625 C 938.308594 999.832031 946.410156 1006.324219 955.273438 1011.859375 C 964.132812 1017.398438 973.515625 1021.832031 983.421875 1025.164062 C 675.195312 1116.972656 329.820312 1033.917969 550.578125 959.578125 Z M 1153.898438 1208.699219 C 1153.898438 1208.699219 1191.046875 1239.304688 1112.375 1263.359375 C 965.910156 1307.136719 498.132812 1320.230469 366.96875 1263.359375 C 321.066406 1243.722656 408.496094 1215.289062 436.519531 1210.910156 C 464.953125 1204.363281 480.292969 1204.363281 480.292969 1204.363281 C 429.972656 1169.382812 145.84375 1276.492188 336.039062 1307.054688 C 858.476562 1392.320312 1289.113281 1269.90625 1153.570312 1208.699219 Z M 606.957031 810.859375 C 606.957031 810.859375 368.6875 867.730469 521.695312 887.367188 C 587.277344 896.121094 716.230469 893.914062 836.46875 885.199219 C 934.820312 876.445312 1033.25 859.015625 1033.25 859.015625 C 1033.25 859.015625 998.273438 874.316406 974.214844 889.617188 C 731.613281 953.03125 265.957031 924.597656 399.328125 859.015625 C 512.980469 804.355469 606.996094 810.941406 606.996094 810.941406 Z M 1033.25 1049.136719 C 1278.066406 922.308594 1164.414062 799.976562 1085.699219 815.238281 C 1066.0625 819.613281 1057.265625 823.992188 1057.265625 823.992188 C 1057.265625 823.992188 1063.8125 810.898438 1079.113281 806.523438 C 1234.332031 751.863281 1356.738281 970.460938 1028.792969 1055.683594 C 1028.792969 1055.683594 1030.960938 1053.515625 1033.167969 1049.136719 Z M 631.09375 1394.527344 C 867.152344 1409.832031 1227.867188 1385.773438 1236.582031 1274.242188 C 1236.582031 1274.242188 1219.113281 1318.019531 1042.046875 1350.75 C 840.925781 1387.902344 591.734375 1383.480469 445.273438 1359.507812 C 445.273438 1359.507812 475.875 1385.691406 631.09375 1394.488281 Z M 631.09375 1394.527344 " fill-opacity="1" fill-rule="nonzero"/><g clip-path="url(#99cae7e6b3)"><path fill="#f58219" d="M 884.988281 89.476562 C 884.988281 89.476562 1020.527344 227.191406 756.035156 434.867188 C 543.992188 603.183594 707.964844 699.371094 756.035156 808.691406 C 631.421875 697.203125 541.824219 598.804688 603.027344 507.039062 C 692.625 371.449219 939.644531 306.277344 884.988281 89.476562 Z M 815.441406 716.882812 C 878.851562 789.011719 797.96875 854.597656 797.96875 854.597656 C 797.96875 854.597656 959.734375 771.542969 885.398438 668.765625 C 817.648438 570.410156 765.117188 522.296875 1049.328125 358.359375 C 1049.328125 358.359375 601.226562 469.847656 815.441406 716.882812 Z M 815.441406 716.882812 " fill-opacity="1" fill-rule="nonzero"/></g></svg>