<svg xmlns="http://www.w3.org/2000/svg" xmlns:xlink="http://www.w3.org/1999/xlink" width="2000" zoomAndPan="magnify" viewBox="0 0 1500 1499.999933" height="2000" preserveAspectRatio="xMidYMid meet" version="1.0"><defs><clipPath id="1ea7726600"><path d="M 104.199219 86 L 630 86 L 630 413 L 104.199219 413 Z M 104.199219 86 " clip-rule="nonzero"/></clipPath><clipPath id="baab520f20"><path d="M 104.199219 231 L 637 231 L 637 1414.1875 L 104.199219 1414.1875 Z M 104.199219 231 " clip-rule="nonzero"/></clipPath><clipPath id="e006642d97"><path d="M 601 812 L 1142 812 L 1142 1414.1875 L 601 1414.1875 Z M 601 812 " clip-rule="nonzero"/></clipPath><clipPath id="c8d9e56d4f"><path d="M 1106 376 L 1395.699219 376 L 1395.699219 848 L 1106 848 Z M 1106 376 " clip-rule="nonzero"/></clipPath><clipPath id="dde9593692"><path d="M 853 234 L 1395.699219 234 L 1395.699219 557 L 853 557 Z M 853 234 " clip-rule="nonzero"/></clipPath></defs><g clip-path="url(#1ea7726600)"><path fill="#ef0a1b" d="M 372.234375 412.035156 C 369.074219 412.035156 366.128906 411.246094 363.394531 409.664062 L 361.65625 408.65625 L 113.367188 264.691406 C 113.035156 264.5 112.714844 264.296875 112.394531 264.082031 C 112.078125 263.871094 111.769531 263.648438 111.464844 263.414062 C 111.164062 263.183594 110.867188 262.941406 110.582031 262.6875 C 110.292969 262.4375 110.015625 262.175781 109.746094 261.90625 C 109.476562 261.636719 109.214844 261.355469 108.960938 261.070312 C 108.710938 260.78125 108.46875 260.488281 108.234375 260.183594 C 108 259.882812 107.777344 259.574219 107.566406 259.253906 C 107.351562 258.9375 107.152344 258.613281 106.957031 258.285156 C 106.765625 257.953125 106.585938 257.617188 106.417969 257.277344 C 106.246094 256.933594 106.085938 256.585938 105.941406 256.234375 C 105.792969 255.882812 105.65625 255.523438 105.53125 255.164062 C 105.410156 254.800781 105.296875 254.4375 105.195312 254.070312 C 105.09375 253.699219 105.007812 253.328125 104.929688 252.953125 C 104.855469 252.582031 104.789062 252.203125 104.738281 251.824219 C 104.6875 251.449219 104.644531 251.066406 104.617188 250.6875 C 104.589844 250.304688 104.578125 249.925781 104.574219 249.542969 C 104.570312 249.160156 104.582031 248.777344 104.601562 248.398438 C 104.625 248.015625 104.660156 247.636719 104.707031 247.257812 C 104.753906 246.878906 104.8125 246.5 104.882812 246.125 C 104.957031 245.75 105.039062 245.378906 105.132812 245.007812 C 105.230469 244.636719 105.335938 244.269531 105.457031 243.910156 C 105.578125 243.546875 105.707031 243.1875 105.851562 242.832031 C 105.992188 242.476562 106.148438 242.128906 106.3125 241.785156 C 106.476562 241.441406 106.652344 241.101562 106.839844 240.769531 C 107.027344 240.4375 107.226562 240.109375 107.433594 239.789062 C 107.644531 239.46875 107.863281 239.15625 108.089844 238.851562 C 108.320312 238.542969 108.558594 238.246094 108.804688 237.957031 C 109.054688 237.664062 109.3125 237.382812 109.578125 237.109375 C 109.84375 236.835938 110.121094 236.570312 110.402344 236.316406 C 110.6875 236.058594 110.976562 235.8125 111.277344 235.578125 C 111.578125 235.339844 111.882812 235.113281 112.199219 234.894531 C 112.511719 234.679688 112.835938 234.472656 113.160156 234.277344 L 355.601562 89.292969 C 356.96875 88.476562 358.425781 87.851562 359.964844 87.429688 C 361.5 87.003906 363.070312 86.792969 364.664062 86.792969 C 366.261719 86.792969 367.828125 87.007812 369.367188 87.433594 C 370.90625 87.859375 372.359375 88.484375 373.726562 89.304688 L 620.785156 237.433594 C 621.113281 237.628906 621.429688 237.832031 621.746094 238.050781 C 622.058594 238.265625 622.363281 238.492188 622.660156 238.726562 C 622.957031 238.964844 623.25 239.207031 623.53125 239.464844 C 623.8125 239.71875 624.085938 239.980469 624.351562 240.253906 C 624.617188 240.527344 624.875 240.804688 625.121094 241.09375 C 625.367188 241.382812 625.605469 241.679688 625.832031 241.984375 C 626.0625 242.289062 626.277344 242.601562 626.488281 242.917969 C 626.695312 243.238281 626.890625 243.5625 627.078125 243.890625 C 627.265625 244.222656 627.441406 244.558594 627.605469 244.902344 C 627.773438 245.246094 627.925781 245.59375 628.070312 245.945312 C 628.210938 246.296875 628.34375 246.652344 628.460938 247.015625 C 628.582031 247.375 628.691406 247.738281 628.785156 248.105469 C 628.882812 248.476562 628.964844 248.84375 629.039062 249.21875 C 629.109375 249.589844 629.171875 249.96875 629.21875 250.34375 C 629.265625 250.722656 629.300781 251.097656 629.324219 251.480469 C 629.347656 251.859375 629.359375 252.238281 629.359375 252.617188 C 629.359375 253 629.34375 253.378906 629.320312 253.757812 C 629.292969 254.136719 629.257812 254.515625 629.207031 254.890625 C 629.15625 255.269531 629.09375 255.644531 629.019531 256.015625 C 628.945312 256.390625 628.859375 256.757812 628.761719 257.125 C 628.664062 257.492188 628.554688 257.855469 628.433594 258.21875 C 628.308594 258.578125 628.175781 258.933594 628.03125 259.285156 C 627.886719 259.636719 627.730469 259.984375 627.566406 260.324219 C 627.398438 260.664062 627.21875 261 627.03125 261.332031 C 626.84375 261.660156 626.644531 261.984375 626.433594 262.300781 C 626.222656 262.621094 626.003906 262.929688 625.773438 263.230469 C 625.546875 263.535156 625.304688 263.832031 625.058594 264.117188 C 624.808594 264.40625 624.550781 264.683594 624.285156 264.953125 C 624.019531 265.226562 623.742188 265.488281 623.457031 265.742188 C 623.175781 265.992188 622.882812 266.238281 622.585938 266.472656 C 622.285156 266.707031 621.976562 266.929688 621.664062 267.144531 C 621.351562 267.359375 621.03125 267.5625 620.703125 267.757812 L 381.222656 409.574219 C 378.453125 411.214844 375.457031 412.039062 372.234375 412.035156 Z M 156.996094 249.183594 L 372.140625 373.933594 L 577.238281 252.476562 L 364.644531 125.011719 Z M 156.996094 249.183594 " fill-opacity="1" fill-rule="nonzero"/></g><g clip-path="url(#baab520f20)"><path fill="#ef0a1b" d="M 618.777344 1414.1875 C 615.730469 1414.1875 612.875 1413.449219 610.210938 1411.96875 L 113.652344 1136.265625 C 112.277344 1135.5 111.023438 1134.570312 109.898438 1133.472656 C 108.769531 1132.371094 107.808594 1131.144531 107.011719 1129.789062 C 106.210938 1128.429688 105.605469 1126.992188 105.191406 1125.472656 C 104.777344 1123.957031 104.570312 1122.410156 104.570312 1120.835938 L 104.570312 249.417969 C 104.570312 247.867188 104.773438 246.34375 105.175781 244.847656 C 105.574219 243.347656 106.164062 241.929688 106.941406 240.585938 C 107.714844 239.246094 108.652344 238.027344 109.75 236.929688 C 110.84375 235.835938 112.066406 234.898438 113.410156 234.125 C 114.75 233.351562 116.171875 232.765625 117.667969 232.367188 C 119.167969 231.964844 120.691406 231.769531 122.242188 231.769531 C 123.792969 231.773438 125.316406 231.976562 126.8125 232.378906 C 128.308594 232.78125 129.726562 233.371094 131.066406 234.148438 L 379.347656 378.113281 C 380.683594 378.886719 381.898438 379.824219 382.992188 380.917969 C 384.082031 382.011719 385.015625 383.230469 385.785156 384.570312 C 386.558594 385.910156 387.144531 387.328125 387.542969 388.820312 C 387.941406 390.3125 388.140625 391.832031 388.140625 393.378906 L 388.140625 964.328125 L 627.660156 1103.882812 C 628.992188 1104.660156 630.203125 1105.59375 631.289062 1106.6875 C 632.378906 1107.785156 633.304688 1109 634.074219 1110.335938 C 634.84375 1111.675781 635.425781 1113.089844 635.824219 1114.582031 C 636.222656 1116.070312 636.421875 1117.589844 636.421875 1119.132812 L 636.421875 1396.539062 C 636.421875 1397.117188 636.394531 1397.695312 636.335938 1398.269531 C 636.28125 1398.84375 636.195312 1399.414062 636.082031 1399.980469 C 635.96875 1400.550781 635.832031 1401.109375 635.664062 1401.664062 C 635.496094 1402.214844 635.300781 1402.757812 635.078125 1403.292969 C 634.859375 1403.828125 634.609375 1404.347656 634.339844 1404.859375 C 634.066406 1405.367188 633.769531 1405.863281 633.449219 1406.34375 C 633.128906 1406.824219 632.785156 1407.289062 632.417969 1407.734375 C 632.050781 1408.183594 631.664062 1408.609375 631.253906 1409.019531 C 630.84375 1409.429688 630.417969 1409.816406 629.972656 1410.183594 C 629.523438 1410.550781 629.058594 1410.894531 628.578125 1411.214844 C 628.097656 1411.535156 627.605469 1411.832031 627.09375 1412.105469 C 626.585938 1412.378906 626.0625 1412.625 625.527344 1412.84375 C 624.996094 1413.066406 624.453125 1413.261719 623.898438 1413.429688 C 623.34375 1413.597656 622.785156 1413.738281 622.21875 1413.851562 C 621.652344 1413.960938 621.082031 1414.046875 620.507812 1414.105469 C 619.929688 1414.160156 619.355469 1414.1875 618.777344 1414.1875 Z M 139.863281 1110.445312 L 601.128906 1366.554688 L 601.128906 1129.277344 L 361.613281 989.722656 C 360.28125 988.945312 359.070312 988.011719 357.980469 986.917969 C 356.894531 985.820312 355.964844 984.605469 355.195312 983.269531 C 354.425781 981.929688 353.84375 980.515625 353.445312 979.023438 C 353.046875 977.535156 352.847656 976.015625 352.847656 974.472656 L 352.847656 403.550781 L 139.863281 280.050781 Z M 139.863281 1110.445312 " fill-opacity="1" fill-rule="nonzero"/></g><path fill="#ef0a1b" d="M 370.496094 992.121094 C 369.917969 992.121094 369.339844 992.09375 368.765625 992.039062 C 368.191406 991.980469 367.621094 991.894531 367.054688 991.78125 C 366.484375 991.671875 365.925781 991.53125 365.371094 991.363281 C 364.820312 991.195312 364.277344 991 363.742188 990.777344 C 363.207031 990.558594 362.6875 990.308594 362.175781 990.039062 C 361.667969 989.765625 361.171875 989.46875 360.691406 989.148438 C 360.210938 988.824219 359.746094 988.480469 359.300781 988.117188 C 358.855469 987.75 358.425781 987.359375 358.015625 986.953125 C 357.609375 986.542969 357.222656 986.117188 356.855469 985.667969 C 356.488281 985.222656 356.144531 984.757812 355.824219 984.277344 C 355.503906 983.796875 355.207031 983.300781 354.933594 982.792969 C 354.660156 982.28125 354.414062 981.757812 354.191406 981.226562 C 353.972656 980.691406 353.777344 980.148438 353.609375 979.59375 C 353.441406 979.042969 353.300781 978.480469 353.1875 977.914062 C 353.078125 977.347656 352.992188 976.777344 352.933594 976.199219 C 352.878906 975.625 352.851562 975.050781 352.851562 974.472656 L 352.851562 393.382812 C 352.851562 392.285156 352.953125 391.199219 353.152344 390.125 C 353.355469 389.046875 353.65625 387.996094 354.054688 386.976562 C 354.449219 385.957031 354.9375 384.980469 355.519531 384.050781 C 356.097656 383.121094 356.757812 382.253906 357.5 381.445312 C 358.238281 380.636719 359.046875 379.90625 359.925781 379.25 C 360.800781 378.59375 361.730469 378.023438 362.714844 377.542969 C 363.699219 377.058594 364.71875 376.671875 365.773438 376.378906 C 366.828125 376.082031 367.902344 375.890625 368.992188 375.796875 L 602.726562 237.382812 C 603.058594 237.1875 603.394531 237.003906 603.738281 236.828125 C 604.082031 236.652344 604.429688 236.492188 604.785156 236.339844 C 605.140625 236.1875 605.496094 236.050781 605.859375 235.921875 C 606.222656 235.792969 606.589844 235.679688 606.960938 235.574219 C 607.332031 235.46875 607.707031 235.378906 608.082031 235.300781 C 608.457031 235.21875 608.835938 235.152344 609.21875 235.097656 C 609.597656 235.042969 609.980469 235.003906 610.367188 234.972656 C 610.75 234.945312 611.132812 234.925781 611.519531 234.921875 C 611.902344 234.917969 612.289062 234.925781 612.671875 234.945312 C 613.054688 234.96875 613.441406 235 613.820312 235.046875 C 614.203125 235.09375 614.582031 235.152344 614.960938 235.222656 C 615.339844 235.292969 615.714844 235.375 616.089844 235.472656 C 616.460938 235.566406 616.832031 235.671875 617.195312 235.792969 C 617.5625 235.914062 617.925781 236.042969 618.28125 236.1875 C 618.640625 236.332031 618.992188 236.484375 619.339844 236.652344 C 619.683594 236.816406 620.027344 236.996094 620.363281 237.183594 C 620.699219 237.371094 621.027344 237.570312 621.347656 237.78125 C 621.671875 237.992188 621.988281 238.210938 622.296875 238.441406 C 622.601562 238.671875 622.902344 238.914062 623.195312 239.164062 C 623.488281 239.414062 623.773438 239.675781 624.046875 239.945312 C 624.324219 240.210938 624.589844 240.488281 624.847656 240.777344 C 625.101562 241.0625 625.351562 241.355469 625.589844 241.660156 C 625.828125 241.960938 626.054688 242.273438 626.273438 242.589844 C 626.488281 242.90625 626.695312 243.230469 626.894531 243.5625 C 627.089844 243.894531 627.273438 244.230469 627.449219 244.574219 C 627.625 244.917969 627.785156 245.265625 627.9375 245.621094 C 628.089844 245.972656 628.230469 246.332031 628.359375 246.695312 C 628.484375 247.058594 628.601562 247.425781 628.707031 247.792969 C 628.808594 248.164062 628.902344 248.539062 628.980469 248.914062 C 629.0625 249.292969 629.128906 249.671875 629.183594 250.050781 C 629.238281 250.433594 629.28125 250.816406 629.3125 251.199219 C 629.339844 251.582031 629.359375 251.96875 629.363281 252.351562 L 636.421875 826.199219 C 636.441406 827.746094 636.257812 829.269531 635.878906 830.765625 C 635.496094 832.265625 634.929688 833.6875 634.171875 835.039062 C 633.417969 836.386719 632.5 837.617188 631.421875 838.726562 C 630.34375 839.832031 629.140625 840.785156 627.8125 841.574219 L 379.535156 989.632812 C 376.75 991.292969 373.738281 992.121094 370.496094 992.121094 Z M 388.140625 405.476562 L 388.140625 943.398438 L 601.003906 816.460938 L 594.445312 283.300781 Z M 388.140625 405.476562 " fill-opacity="1" fill-rule="nonzero"/><g clip-path="url(#e006642d97)"><path fill="#ef0a1b" d="M 618.777344 1414.1875 C 618.199219 1414.1875 617.621094 1414.160156 617.046875 1414.105469 C 616.472656 1414.046875 615.898438 1413.960938 615.332031 1413.851562 C 614.765625 1413.738281 614.207031 1413.597656 613.652344 1413.429688 C 613.101562 1413.261719 612.558594 1413.066406 612.023438 1412.84375 C 611.488281 1412.625 610.96875 1412.378906 610.457031 1412.105469 C 609.949219 1411.832031 609.453125 1411.535156 608.972656 1411.214844 C 608.492188 1410.894531 608.027344 1410.550781 607.582031 1410.183594 C 607.132812 1409.816406 606.707031 1409.429688 606.296875 1409.019531 C 605.890625 1408.609375 605.5 1408.183594 605.136719 1407.738281 C 604.769531 1407.289062 604.425781 1406.824219 604.105469 1406.34375 C 603.78125 1405.863281 603.484375 1405.371094 603.214844 1404.859375 C 602.941406 1404.351562 602.695312 1403.828125 602.472656 1403.292969 C 602.25 1402.761719 602.058594 1402.214844 601.890625 1401.664062 C 601.722656 1401.109375 601.582031 1400.550781 601.46875 1399.984375 C 601.355469 1399.417969 601.269531 1398.84375 601.214844 1398.269531 C 601.15625 1397.695312 601.128906 1397.117188 601.128906 1396.539062 L 601.128906 1119.132812 C 601.128906 1117.578125 601.332031 1116.050781 601.734375 1114.550781 C 602.140625 1113.046875 602.730469 1111.625 603.511719 1110.28125 C 604.289062 1108.933594 605.230469 1107.714844 606.332031 1106.617188 C 607.433594 1105.523438 608.660156 1104.589844 610.011719 1103.816406 L 1115.382812 814.496094 C 1115.714844 814.304688 1116.054688 814.125 1116.398438 813.957031 C 1116.746094 813.789062 1117.097656 813.632812 1117.453125 813.484375 C 1117.808594 813.339844 1118.167969 813.207031 1118.53125 813.082031 C 1118.898438 812.960938 1119.265625 812.851562 1119.636719 812.75 C 1120.007812 812.652344 1120.382812 812.566406 1120.757812 812.492188 C 1121.136719 812.417969 1121.515625 812.359375 1121.898438 812.308594 C 1122.277344 812.261719 1122.660156 812.222656 1123.046875 812.199219 C 1123.429688 812.175781 1123.8125 812.164062 1124.195312 812.164062 C 1124.582031 812.167969 1124.964844 812.179688 1125.347656 812.207031 C 1125.734375 812.234375 1126.113281 812.269531 1126.496094 812.324219 C 1126.875 812.375 1127.253906 812.4375 1127.632812 812.511719 C 1128.007812 812.589844 1128.382812 812.675781 1128.753906 812.777344 C 1129.125 812.878906 1129.492188 812.992188 1129.855469 813.113281 C 1130.21875 813.238281 1130.578125 813.375 1130.933594 813.523438 C 1131.289062 813.671875 1131.640625 813.832031 1131.984375 814 C 1132.328125 814.171875 1132.667969 814.355469 1133 814.546875 C 1133.332031 814.738281 1133.65625 814.941406 1133.976562 815.15625 C 1134.296875 815.371094 1134.609375 815.59375 1134.914062 815.832031 C 1135.21875 816.066406 1135.515625 816.308594 1135.804688 816.5625 C 1136.089844 816.816406 1136.371094 817.078125 1136.644531 817.351562 C 1136.914062 817.625 1137.175781 817.90625 1137.429688 818.195312 C 1137.683594 818.484375 1137.925781 818.78125 1138.160156 819.085938 C 1138.394531 819.390625 1138.617188 819.703125 1138.832031 820.023438 C 1139.042969 820.34375 1139.246094 820.671875 1139.4375 821.003906 C 1139.628906 821.335938 1139.8125 821.675781 1139.980469 822.019531 C 1140.148438 822.367188 1140.308594 822.714844 1140.457031 823.070312 C 1140.601562 823.425781 1140.738281 823.789062 1140.859375 824.152344 C 1140.984375 824.515625 1141.09375 824.882812 1141.195312 825.253906 C 1141.292969 825.625 1141.382812 826 1141.457031 826.378906 C 1141.53125 826.753906 1141.59375 827.132812 1141.644531 827.515625 C 1141.695312 827.894531 1141.730469 828.277344 1141.757812 828.664062 C 1141.78125 829.046875 1141.792969 829.429688 1141.792969 829.816406 L 1141.792969 1119.132812 C 1141.792969 1120.714844 1141.585938 1122.269531 1141.167969 1123.792969 C 1140.75 1125.320312 1140.140625 1126.761719 1139.332031 1128.125 C 1138.527344 1129.484375 1137.558594 1130.714844 1136.421875 1131.816406 C 1135.285156 1132.914062 1134.023438 1133.84375 1132.636719 1134.605469 L 627.265625 1412.011719 C 624.621094 1413.464844 621.792969 1414.1875 618.777344 1414.1875 Z M 636.421875 1129.367188 L 636.421875 1366.722656 L 1106.5 1108.6875 L 1106.5 860.25 Z M 636.421875 1129.367188 " fill-opacity="1" fill-rule="nonzero"/></g><path fill="#ef0a1b" d="M 618.777344 1136.78125 C 615.597656 1136.78125 612.636719 1135.984375 609.894531 1134.382812 L 361.613281 989.722656 C 361.285156 989.53125 360.960938 989.328125 360.644531 989.113281 C 360.328125 988.902344 360.019531 988.679688 359.714844 988.445312 C 359.414062 988.210938 359.121094 987.96875 358.832031 987.714844 C 358.546875 987.464844 358.269531 987.203125 358 986.929688 C 357.730469 986.660156 357.46875 986.382812 357.21875 986.09375 C 356.964844 985.808594 356.722656 985.511719 356.492188 985.210938 C 356.257812 984.90625 356.039062 984.597656 355.824219 984.277344 C 355.613281 983.960938 355.410156 983.636719 355.21875 983.304688 C 355.03125 982.976562 354.847656 982.640625 354.679688 982.296875 C 354.511719 981.953125 354.351562 981.605469 354.207031 981.253906 C 354.058594 980.902344 353.925781 980.546875 353.800781 980.183594 C 353.675781 979.824219 353.566406 979.457031 353.464844 979.089844 C 353.367188 978.71875 353.277344 978.347656 353.203125 977.972656 C 353.125 977.601562 353.0625 977.222656 353.011719 976.84375 C 352.960938 976.46875 352.921875 976.085938 352.894531 975.707031 C 352.867188 975.324219 352.855469 974.945312 352.851562 974.5625 C 352.851562 974.179688 352.859375 973.800781 352.882812 973.417969 C 352.90625 973.035156 352.941406 972.65625 352.988281 972.277344 C 353.035156 971.898438 353.097656 971.523438 353.167969 971.148438 C 353.238281 970.773438 353.324219 970.398438 353.417969 970.03125 C 353.515625 969.660156 353.625 969.292969 353.742188 968.933594 C 353.863281 968.570312 353.996094 968.210938 354.136719 967.855469 C 354.28125 967.503906 354.4375 967.152344 354.601562 966.808594 C 354.765625 966.464844 354.945312 966.128906 355.132812 965.796875 C 355.320312 965.460938 355.519531 965.136719 355.726562 964.816406 C 355.9375 964.496094 356.15625 964.183594 356.382812 963.878906 C 356.613281 963.574219 356.851562 963.277344 357.101562 962.984375 C 357.347656 962.695312 357.605469 962.414062 357.875 962.140625 C 358.140625 961.867188 358.414062 961.605469 358.699219 961.347656 C 358.984375 961.09375 359.273438 960.847656 359.574219 960.609375 C 359.875 960.375 360.183594 960.148438 360.496094 959.933594 C 360.8125 959.714844 361.132812 959.507812 361.460938 959.3125 L 609.738281 811.257812 C 609.925781 811.144531 610.113281 811.039062 610.308594 810.933594 L 862.140625 673.078125 C 863.449219 672.363281 864.828125 671.820312 866.273438 671.453125 C 867.71875 671.085938 869.1875 670.90625 870.679688 670.914062 C 872.171875 670.917969 873.636719 671.109375 875.082031 671.488281 C 876.523438 671.863281 877.898438 672.417969 879.199219 673.144531 L 1132.738281 814.394531 C 1134.101562 815.15625 1135.34375 816.082031 1136.464844 817.171875 C 1137.585938 818.261719 1138.542969 819.480469 1139.339844 820.828125 C 1140.132812 822.171875 1140.742188 823.597656 1141.15625 825.105469 C 1141.574219 826.613281 1141.789062 828.148438 1141.796875 829.710938 C 1141.804688 831.273438 1141.609375 832.8125 1141.210938 834.324219 C 1140.8125 835.835938 1140.222656 837.265625 1139.441406 838.621094 C 1138.660156 839.976562 1137.71875 841.207031 1136.613281 842.308594 C 1135.503906 843.414062 1134.273438 844.355469 1132.917969 845.132812 L 627.542969 1134.449219 C 624.828125 1136.003906 621.90625 1136.78125 618.777344 1136.78125 Z M 405.25 974.296875 L 618.851562 1098.753906 L 1088.261719 830.023438 L 870.535156 708.722656 L 627.535156 841.742188 Z M 405.25 974.296875 " fill-opacity="1" fill-rule="nonzero"/><path fill="#ef0a1b" d="M 1124.148438 847.460938 C 1121.089844 847.464844 1118.230469 846.71875 1115.5625 845.230469 L 862.023438 703.980469 C 860.648438 703.210938 859.394531 702.277344 858.269531 701.175781 C 857.140625 700.070312 856.179688 698.839844 855.382812 697.480469 C 854.589844 696.121094 853.984375 694.679688 853.574219 693.15625 C 853.164062 691.636719 852.960938 690.085938 852.964844 688.511719 L 853.816406 394.335938 C 853.816406 393.953125 853.832031 393.570312 853.859375 393.1875 C 853.882812 392.804688 853.921875 392.421875 853.972656 392.042969 C 854.023438 391.660156 854.089844 391.285156 854.164062 390.90625 C 854.238281 390.53125 854.328125 390.15625 854.425781 389.785156 C 854.527344 389.417969 854.640625 389.050781 854.761719 388.6875 C 854.886719 388.324219 855.023438 387.964844 855.171875 387.609375 C 855.316406 387.253906 855.476562 386.90625 855.648438 386.5625 C 855.816406 386.21875 856 385.878906 856.191406 385.546875 C 856.382812 385.214844 856.585938 384.890625 856.800781 384.570312 C 857.011719 384.253906 857.234375 383.941406 857.46875 383.636719 C 857.703125 383.332031 857.949219 383.035156 858.199219 382.746094 C 858.453125 382.457031 858.714844 382.179688 858.988281 381.90625 C 859.257812 381.636719 859.539062 381.375 859.828125 381.121094 C 860.117188 380.867188 860.410156 380.625 860.714844 380.390625 C 861.019531 380.15625 861.332031 379.933594 861.652344 379.71875 C 861.96875 379.507812 862.296875 379.304688 862.628906 379.109375 C 862.960938 378.917969 863.296875 378.738281 863.640625 378.566406 C 863.988281 378.398438 864.335938 378.238281 864.691406 378.089844 C 865.042969 377.945312 865.402344 377.808594 865.765625 377.683594 C 866.128906 377.5625 866.496094 377.449219 866.867188 377.347656 C 867.238281 377.25 867.609375 377.160156 867.988281 377.085938 C 868.363281 377.011719 868.742188 376.945312 869.121094 376.894531 C 869.503906 376.84375 869.882812 376.804688 870.265625 376.78125 C 870.648438 376.753906 871.03125 376.742188 871.417969 376.738281 C 871.800781 376.738281 872.183594 376.75 872.566406 376.773438 C 872.949219 376.796875 873.332031 376.835938 873.710938 376.882812 C 874.09375 376.933594 874.472656 376.992188 874.847656 377.066406 C 875.226562 377.140625 875.597656 377.226562 875.96875 377.324219 C 876.339844 377.421875 876.707031 377.535156 877.070312 377.65625 C 877.4375 377.777344 877.796875 377.910156 878.152344 378.054688 C 878.503906 378.203125 878.855469 378.359375 879.199219 378.527344 C 879.546875 378.695312 879.882812 378.875 880.21875 379.066406 L 1132.898438 523.476562 C 1134.25 524.25 1135.476562 525.183594 1136.582031 526.28125 C 1137.683594 527.375 1138.628906 528.597656 1139.410156 529.941406 C 1140.191406 531.289062 1140.78125 532.714844 1141.1875 534.214844 C 1141.589844 535.71875 1141.792969 537.246094 1141.792969 538.804688 L 1141.792969 829.816406 C 1141.792969 830.394531 1141.765625 830.972656 1141.707031 831.546875 C 1141.652344 832.121094 1141.566406 832.691406 1141.453125 833.261719 C 1141.339844 833.828125 1141.203125 834.386719 1141.035156 834.941406 C 1140.867188 835.492188 1140.671875 836.035156 1140.449219 836.570312 C 1140.230469 837.105469 1139.980469 837.625 1139.710938 838.136719 C 1139.4375 838.644531 1139.140625 839.140625 1138.820312 839.621094 C 1138.5 840.101562 1138.15625 840.566406 1137.789062 841.011719 C 1137.421875 841.460938 1137.035156 841.886719 1136.625 842.296875 C 1136.214844 842.707031 1135.789062 843.09375 1135.34375 843.460938 C 1134.894531 843.828125 1134.429688 844.171875 1133.949219 844.492188 C 1133.46875 844.8125 1132.976562 845.109375 1132.464844 845.382812 C 1131.957031 845.65625 1131.433594 845.902344 1130.898438 846.121094 C 1130.367188 846.34375 1129.824219 846.539062 1129.269531 846.707031 C 1128.714844 846.875 1128.15625 847.015625 1127.589844 847.125 C 1127.023438 847.238281 1126.453125 847.324219 1125.878906 847.378906 C 1125.300781 847.4375 1124.726562 847.464844 1124.148438 847.464844 Z M 888.285156 678.207031 L 1106.5 799.78125 L 1106.5 549.042969 L 889.023438 424.753906 L 888.285156 678.210938 Z M 888.285156 678.207031 " fill-opacity="1" fill-rule="nonzero"/><g clip-path="url(#c8d9e56d4f)"><path fill="#ef0a1b" d="M 1124.148438 847.460938 C 1123.570312 847.460938 1122.992188 847.433594 1122.417969 847.378906 C 1121.84375 847.320312 1121.269531 847.234375 1120.703125 847.125 C 1120.136719 847.011719 1119.578125 846.871094 1119.023438 846.703125 C 1118.472656 846.535156 1117.925781 846.339844 1117.394531 846.117188 C 1116.859375 845.898438 1116.339844 845.652344 1115.828125 845.378906 C 1115.320312 845.105469 1114.824219 844.808594 1114.34375 844.488281 C 1113.863281 844.167969 1113.398438 843.824219 1112.953125 843.457031 C 1112.503906 843.089844 1112.078125 842.703125 1111.667969 842.292969 C 1111.261719 841.882812 1110.871094 841.457031 1110.507812 841.011719 C 1110.140625 840.5625 1109.796875 840.101562 1109.472656 839.617188 C 1109.152344 839.136719 1108.855469 838.644531 1108.585938 838.132812 C 1108.3125 837.625 1108.066406 837.101562 1107.84375 836.566406 C 1107.621094 836.035156 1107.429688 835.488281 1107.261719 834.9375 C 1107.09375 834.382812 1106.953125 833.824219 1106.839844 833.257812 C 1106.726562 832.691406 1106.644531 832.117188 1106.585938 831.542969 C 1106.53125 830.96875 1106.5 830.390625 1106.5 829.8125 L 1106.5 538.804688 C 1106.5 537.246094 1106.703125 535.714844 1107.109375 534.210938 C 1107.515625 532.707031 1108.109375 531.28125 1108.890625 529.933594 C 1109.675781 528.585938 1110.617188 527.363281 1111.726562 526.269531 C 1112.832031 525.171875 1114.0625 524.238281 1115.414062 523.46875 L 1368.953125 379.054688 C 1369.285156 378.863281 1369.625 378.683594 1369.96875 378.515625 C 1370.316406 378.351562 1370.664062 378.191406 1371.023438 378.046875 C 1371.378906 377.902344 1371.738281 377.769531 1372.101562 377.648438 C 1372.464844 377.527344 1372.832031 377.417969 1373.207031 377.320312 C 1373.578125 377.222656 1373.949219 377.136719 1374.328125 377.0625 C 1374.703125 376.992188 1375.082031 376.929688 1375.464844 376.882812 C 1375.847656 376.832031 1376.226562 376.796875 1376.613281 376.773438 C 1376.996094 376.75 1377.378906 376.742188 1377.761719 376.742188 C 1378.144531 376.742188 1378.53125 376.757812 1378.914062 376.785156 C 1379.296875 376.8125 1379.679688 376.851562 1380.058594 376.902344 C 1380.4375 376.953125 1380.816406 377.019531 1381.195312 377.09375 C 1381.570312 377.171875 1381.945312 377.257812 1382.3125 377.359375 C 1382.683594 377.460938 1383.050781 377.574219 1383.414062 377.699219 C 1383.777344 377.824219 1384.136719 377.960938 1384.492188 378.109375 C 1384.84375 378.257812 1385.195312 378.414062 1385.539062 378.585938 C 1385.882812 378.757812 1386.21875 378.941406 1386.550781 379.132812 C 1386.882812 379.324219 1387.210938 379.527344 1387.527344 379.742188 C 1387.847656 379.957031 1388.160156 380.183594 1388.460938 380.417969 C 1388.765625 380.652344 1389.0625 380.894531 1389.351562 381.148438 C 1389.636719 381.402344 1389.917969 381.667969 1390.1875 381.9375 C 1390.460938 382.210938 1390.722656 382.492188 1390.972656 382.78125 C 1391.226562 383.070312 1391.46875 383.367188 1391.703125 383.671875 C 1391.9375 383.976562 1392.160156 384.289062 1392.371094 384.609375 C 1392.585938 384.929688 1392.789062 385.257812 1392.980469 385.589844 C 1393.171875 385.921875 1393.351562 386.261719 1393.519531 386.605469 C 1393.691406 386.949219 1393.847656 387.300781 1393.996094 387.65625 C 1394.140625 388.007812 1394.277344 388.371094 1394.398438 388.734375 C 1394.523438 389.097656 1394.632812 389.464844 1394.730469 389.835938 C 1394.832031 390.207031 1394.917969 390.582031 1394.992188 390.957031 C 1395.066406 391.332031 1395.128906 391.710938 1395.179688 392.09375 C 1395.230469 392.472656 1395.265625 392.855469 1395.292969 393.238281 C 1395.316406 393.621094 1395.332031 394.007812 1395.332031 394.390625 L 1395.332031 688.558594 C 1395.332031 690.132812 1395.125 691.675781 1394.710938 693.195312 C 1394.300781 694.710938 1393.695312 696.148438 1392.898438 697.503906 C 1392.101562 698.859375 1391.140625 700.085938 1390.015625 701.183594 C 1388.894531 702.28125 1387.644531 703.214844 1386.269531 703.980469 L 1132.734375 845.234375 C 1130.066406 846.71875 1127.203125 847.464844 1124.148438 847.464844 Z M 1141.792969 549.058594 L 1141.792969 799.78125 L 1360.039062 678.1875 L 1360.039062 424.753906 Z M 1141.792969 549.058594 " fill-opacity="1" fill-rule="nonzero"/></g><g clip-path="url(#dde9593692)"><path fill="#ef0a1b" d="M 1124.148438 556.449219 C 1121.023438 556.449219 1118.105469 555.675781 1115.390625 554.125 L 862.710938 409.710938 C 861.355469 408.9375 860.125 408 859.015625 406.898438 C 857.910156 405.796875 856.964844 404.566406 856.1875 403.214844 C 855.40625 401.863281 854.8125 400.433594 854.414062 398.925781 C 854.011719 397.414062 853.8125 395.878906 853.820312 394.320312 C 853.824219 392.757812 854.035156 391.222656 854.449219 389.71875 C 854.863281 388.210938 855.464844 386.785156 856.253906 385.441406 C 857.046875 384.09375 858 382.875 859.113281 381.78125 C 860.230469 380.6875 861.46875 379.761719 862.832031 378.996094 L 1115.511719 237.179688 C 1116.828125 236.4375 1118.21875 235.878906 1119.679688 235.496094 C 1121.140625 235.113281 1122.625 234.921875 1124.132812 234.921875 C 1125.644531 234.921875 1127.128906 235.109375 1128.589844 235.488281 C 1130.054688 235.871094 1131.441406 236.429688 1132.761719 237.164062 L 1386.296875 378.984375 C 1387.664062 379.746094 1388.902344 380.675781 1390.019531 381.769531 C 1391.140625 382.863281 1392.09375 384.082031 1392.886719 385.429688 C 1393.683594 386.777344 1394.285156 388.203125 1394.699219 389.710938 C 1395.113281 391.21875 1395.324219 392.753906 1395.332031 394.320312 C 1395.335938 395.882812 1395.136719 397.421875 1394.734375 398.929688 C 1394.332031 400.441406 1393.742188 401.875 1392.957031 403.226562 C 1392.175781 404.582031 1391.226562 405.808594 1390.117188 406.910156 C 1389.007812 408.011719 1387.773438 408.949219 1386.417969 409.722656 L 1132.878906 554.136719 C 1130.171875 555.679688 1127.261719 556.449219 1124.148438 556.449219 Z M 907.277344 394.527344 L 1124.160156 518.480469 L 1341.777344 394.527344 L 1124.160156 272.800781 Z M 907.277344 394.527344 " fill-opacity="1" fill-rule="nonzero"/></g></svg>