<svg xmlns="http://www.w3.org/2000/svg" xmlns:xlink="http://www.w3.org/1999/xlink" width="2000" zoomAndPan="magnify" viewBox="0 0 1500 1499.999933" height="2000" preserveAspectRatio="xMidYMid meet" version="1.0"><defs><clipPath id="7939fdf9af"><path d="M 119.777344 428 L 1373 428 L 1373 1080 L 119.777344 1080 Z M 119.777344 428 " clip-rule="nonzero"/></clipPath></defs><g clip-path="url(#7939fdf9af)"><path fill="#00678c" d="M 117.457031 1021.464844 L 158.867188 1021.464844 L 158.867188 857.535156 L 223.539062 1000.460938 C 230.863281 1017.640625 241.386719 1024.003906 261.761719 1024.003906 C 282.140625 1024.003906 292.035156 1017.632812 299.605469 1000.460938 L 363.953125 857.535156 L 363.953125 1021.464844 L 405.683594 1021.464844 L 405.683594 857.535156 C 405.683594 841.625 399.308594 833.96875 385.929688 829.832031 C 354.394531 820.285156 333.367188 828.5625 323.8125 849.878906 L 260.429688 991.214844 L 199.261719 849.878906 C 190.023438 828.5625 168.675781 820.285156 136.828125 829.832031 C 123.761719 833.96875 117.390625 841.617188 117.390625 857.535156 L 117.386719 1021.464844 Z M 440.15625 888.089844 L 481.886719 888.089844 L 481.886719 978.179688 C 481.574219 983.265625 483.480469 994.730469 506.160156 995.039062 C 517.941406 995.359375 595.992188 995.039062 596.621094 995.039062 L 596.621094 887.449219 L 638.351562 887.449219 L 638.351562 1034.835938 C 638.351562 1071.121094 593.371094 1079.066406 572.410156 1079.394531 L 441.183594 1079.394531 L 441.183594 1051.714844 L 572.746094 1051.714844 C 599.503906 1048.847656 596.320312 1035.484375 596.320312 1031.023438 L 596.320312 1020.195312 L 508.074219 1020.195312 C 466.980469 1019.871094 440.535156 1001.730469 440.226562 981.039062 L 440.226562 888.078125 Z M 1335.253906 783.679688 C 1309.78125 783.035156 1290.019531 785.589844 1273.453125 792.597656 C 1268.683594 794.523438 1261.03125 794.523438 1260.402344 800.558594 C 1262.953125 803.089844 1263.257812 807.234375 1265.492188 810.746094 C 1269.3125 817.117188 1276.011719 825.699219 1282.058594 830.152344 C 1288.753906 835.253906 1295.445312 840.339844 1302.441406 844.800781 C 1314.863281 852.433594 1328.878906 856.890625 1340.980469 864.535156 C 1347.992188 868.992188 1354.996094 874.722656 1362.007812 879.5 C 1365.578125 882.046875 1367.742188 886.195312 1372.203125 887.777344 L 1372.203125 886.816406 C 1369.976562 883.960938 1369.332031 879.824219 1367.113281 876.625 C 1363.921875 873.453125 1360.738281 870.578125 1357.546875 867.402344 C 1348.3125 854.988281 1336.839844 844.15625 1324.417969 835.253906 C 1314.222656 828.246094 1291.933594 818.703125 1287.789062 806.929688 L 1287.164062 806.289062 C 1294.160156 805.644531 1302.441406 803.097656 1309.136719 801.1875 C 1319.976562 798.332031 1329.84375 798.960938 1340.980469 796.097656 C 1346.085938 794.816406 1351.175781 793.230469 1356.28125 791.640625 L 1356.28125 788.785156 C 1350.546875 783.058594 1346.40625 775.417969 1340.359375 770.007812 C 1324.117188 756.003906 1306.269531 742.3125 1287.789062 730.855469 C 1277.917969 724.492188 1265.171875 720.34375 1254.664062 714.945312 C 1250.828125 713.03125 1244.46875 712.078125 1242.238281 708.894531 C 1236.492188 701.902344 1233.316406 692.664062 1229.175781 684.378906 C 1219.941406 666.871094 1211.019531 647.460938 1203.058594 628.996094 C 1197.324219 616.582031 1193.8125 604.167969 1186.8125 592.710938 C 1154 538.59375 1118.316406 505.8125 1063.527344 473.65625 C 1051.746094 466.96875 1037.730469 464.09375 1022.832031 460.597656 L 998.941406 459.316406 C 993.835938 457.089844 988.746094 451.039062 984.285156 448.171875 C 966.128906 436.714844 919.296875 411.886719 905.910156 444.675781 C 897.308594 465.367188 918.65625 485.734375 925.902344 496.242188 C 931.328125 503.5625 938.324219 511.839844 942.160156 520.117188 C 944.300781 525.523438 945.015625 531.257812 947.25 536.988281 C 952.339844 550.992188 957.125 566.597656 963.8125 579.652344 C 967.382812 586.335938 971.132812 593.351562 975.59375 599.394531 C 978.144531 602.890625 982.605469 604.488281 983.554688 610.21875 C 979.09375 616.589844 978.785156 626.128906 976.238281 634.097656 C 964.765625 670.070312 969.226562 714.628906 985.46875 741.042969 C 990.574219 748.996094 1002.605469 766.511719 1018.925781 759.820312 C 1033.261719 754.089844 1030.0625 735.949219 1034.203125 720.03125 C 1035.167969 716.214844 1034.527344 713.667969 1036.433594 711.113281 L 1036.433594 711.753906 L 1049.496094 738.175781 C 1059.371094 753.769531 1076.578125 770.007812 1090.90625 780.839844 C 1098.546875 786.566406 1104.601562 796.441406 1114.152344 799.9375 L 1114.152344 798.972656 L 1113.527344 798.972656 C 1111.613281 796.121094 1108.742188 794.835938 1106.195312 792.609375 C 1100.460938 786.882812 1094.089844 779.875 1089.628906 773.511719 C 1076.257812 755.691406 1064.476562 735.949219 1053.960938 715.578125 C 1048.855469 705.710938 1044.394531 694.890625 1040.265625 685.023438 C 1038.339844 681.199219 1038.339844 675.460938 1035.160156 673.5625 C 1030.378906 680.554688 1023.378906 686.621094 1019.859375 695.210938 C 1013.804688 708.894531 1013.179688 725.765625 1010.949219 743.277344 C 1009.664062 743.597656 1010.238281 743.277344 1009.664062 743.917969 C 999.484375 741.378906 995.972656 730.863281 992.152344 721.957031 C 982.597656 699.355469 981 663.070312 989.28125 636.964844 C 991.507812 630.277344 1001.078125 609.269531 997.257812 602.902344 C 995.328125 596.855469 988.972656 593.359375 985.460938 588.578125 C 981.320312 582.527344 976.871094 574.894531 974.003906 568.207031 C 966.363281 550.371094 962.542969 530.644531 954.253906 512.816406 C 950.421875 504.539062 943.738281 495.945312 938.320312 488.308594 C 932.265625 479.710938 925.589844 473.664062 920.804688 463.480469 C 919.214844 459.984375 916.984375 454.25 919.535156 450.425781 C 920.164062 447.878906 921.449219 446.929688 923.980469 446.289062 C 928.125 442.792969 939.917969 447.242188 944.058594 449.140625 C 955.839844 453.921875 965.714844 458.375 975.585938 465.050781 C 980.050781 468.234375 984.832031 474.28125 990.566406 475.882812 L 997.265625 475.882812 C 1007.460938 478.105469 1018.917969 476.523438 1028.464844 479.378906 C 1045.347656 484.800781 1060.636719 492.746094 1074.34375 501.351562 C 1116.066406 527.769531 1150.480469 565.332031 1173.726562 610.222656 C 1177.546875 617.542969 1179.140625 624.230469 1182.652344 631.871094 C 1189.347656 647.472656 1197.632812 663.382812 1204.308594 678.671875 C 1211.003906 693.632812 1217.371094 708.921875 1226.925781 721.335938 C 1231.707031 728.023438 1250.816406 731.519531 1259.410156 735.019531 C 1265.785156 737.875 1275.652344 740.441406 1281.402344 743.9375 C 1292.226562 750.625 1303.054688 758.265625 1313.242188 765.585938 C 1318.335938 769.394531 1334.269531 777.355469 1335.21875 783.707031 Z M 1010.402344 507.058594 C 1005.980469 507.019531 1001.628906 507.550781 997.347656 508.648438 L 997.347656 509.292969 L 997.976562 509.292969 C 1000.527344 514.386719 1004.988281 517.890625 1008.171875 522.347656 L 1015.503906 537.628906 L 1016.132812 536.988281 C 1020.59375 533.804688 1022.832031 528.710938 1022.832031 521.078125 C 1020.917969 518.851562 1020.601562 516.621094 1019.011719 514.394531 C 1017.097656 511.210938 1012.957031 509.613281 1010.398438 507.074219 Z M 1010.402344 507.058594 " fill-opacity="1" fill-rule="evenodd"/></g><path fill="#ce8b2c" d="M 670.152344 1021.464844 L 789.925781 1021.464844 C 803.941406 1021.464844 817.328125 1018.609375 828.152344 1013.507812 C 846.308594 1005.234375 854.914062 994.101562 854.914062 979.457031 L 854.914062 948.898438 C 854.914062 937.128906 845.039062 925.976562 825.296875 918.34375 C 815.101562 914.523438 802.359375 912.292969 789.933594 912.292969 L 739.601562 912.292969 C 722.714844 912.292969 714.753906 907.191406 712.519531 896.0625 C 712.207031 894.789062 712.207031 893.515625 712.207031 892.242188 L 712.207031 873.457031 C 712.207031 872.496094 712.207031 871.234375 712.519531 869.960938 C 714.746094 861.367188 719.210938 859.132812 733.9375 857.550781 L 856.578125 857.550781 L 856.578125 829.84375 L 739.984375 829.84375 C 723.101562 829.84375 714.183594 830.808594 706.214844 833.355469 C 681.683594 840.988281 670.851562 853.089844 670.851562 874.40625 L 670.851562 898.613281 C 670.851562 917.378906 691.878906 933.308594 727.554688 937.128906 C 731.375 937.449219 735.515625 937.449219 739.65625 937.449219 L 782.667969 937.449219 C 784.257812 937.449219 785.84375 937.449219 787.113281 937.769531 C 800.179688 939.039062 805.914062 941.265625 809.734375 946.03125 C 812.28125 948.578125 812.925781 950.8125 812.925781 953.679688 L 812.925781 977.863281 C 812.925781 980.71875 811.011719 984.558594 807.191406 987.730469 C 803.371094 990.90625 797.300781 993.140625 789.34375 993.460938 C 787.75 993.460938 786.808594 993.78125 785.199219 993.78125 L 670.152344 993.78125 Z M 1114.203125 973.40625 C 1114.203125 1001.730469 1135.621094 1017.640625 1178.246094 1020.835938 C 1182.386719 1021.15625 1186.207031 1021.464844 1190.347656 1021.464844 L 1298.65625 1021.464844 L 1298.65625 993.78125 L 1189.398438 993.78125 C 1165.175781 993.78125 1155.941406 987.730469 1155.941406 973.09375 L 1155.941406 829.84375 L 1114.105469 829.84375 L 1114.105469 973.414062 Z M 881.34375 974.667969 L 881.34375 876 C 881.34375 850.847656 899.179688 835.558594 933.914062 830.792969 C 937.734375 830.472656 941.550781 830.152344 945.050781 830.152344 L 1024.042969 830.152344 C 1028.183594 830.152344 1031.699219 830.472656 1035.839844 830.792969 C 1070.558594 835.558594 1088.074219 850.84375 1088.074219 876 L 1088.074219 974.667969 C 1088.074219 995.039062 1080.753906 1005.867188 1063.539062 1013.195312 L 1104.308594 1050.109375 L 1056.214844 1050.109375 L 1023.085938 1020.195312 L 989.632812 1022.105469 L 945.035156 1022.105469 C 936.832031 1022.066406 928.761719 1021.007812 920.824219 1018.929688 C 894.410156 1011.597656 881.34375 997.597656 881.34375 974.667969 Z M 926.253906 972.457031 C 926.253906 973.726562 926.964844 974.988281 927.214844 976.59375 C 929.445312 988.046875 940.265625 994.417969 956.832031 994.417969 L 994.429688 994.417969 L 960.03125 963.21875 L 1008.121094 963.21875 L 1038.378906 990.601562 C 1044.128906 987.410156 1047.625 982.953125 1048.898438 977.222656 C 1049.21875 975.953125 1049.21875 974.371094 1049.21875 973.085938 L 1049.21875 878.539062 C 1049.21875 877.269531 1049.21875 876.003906 1048.898438 874.722656 C 1046.671875 863.90625 1035.847656 857.863281 1019.597656 857.863281 L 956.839844 857.863281 C 938.359375 857.863281 926.257812 865.816406 926.257812 878.539062 Z M 926.253906 972.457031 " fill-opacity="1" fill-rule="evenodd"/></svg>