<svg xmlns="http://www.w3.org/2000/svg" xmlns:xlink="http://www.w3.org/1999/xlink" width="2000" zoomAndPan="magnify" viewBox="0 0 1500 1499.999933" height="2000" preserveAspectRatio="xMidYMid meet" version="1.0"><path fill="#8cc84b" d="M 697.757812 142.136719 C 728.890625 124.515625 768.578125 124.4375 798.929688 142.136719 L 1263.691406 404.0625 C 1292.757812 420.402344 1312.214844 452.808594 1311.941406 486.300781 L 1311.941406 1011.476562 C 1312.136719 1046.371094 1290.773438 1079.476562 1260.113281 1095.503906 L 797.839844 1356.226562 C 795.875 1357.3125 793.875 1358.332031 791.84375 1359.285156 C 789.808594 1360.234375 787.746094 1361.121094 785.652344 1361.9375 C 783.5625 1362.75 781.445312 1363.496094 779.304688 1364.171875 C 777.160156 1364.84375 775 1365.449219 772.816406 1365.976562 C 770.636719 1366.507812 768.4375 1366.964844 766.226562 1367.351562 C 764.011719 1367.734375 761.789062 1368.046875 759.558594 1368.28125 C 757.324219 1368.519531 755.085938 1368.679688 752.839844 1368.765625 C 750.597656 1368.855469 748.355469 1368.867188 746.109375 1368.804688 C 743.863281 1368.742188 741.625 1368.605469 739.386719 1368.394531 C 737.152344 1368.183594 734.925781 1367.898438 732.710938 1367.539062 C 730.492188 1367.179688 728.292969 1366.746094 726.101562 1366.242188 C 723.914062 1365.734375 721.746094 1365.15625 719.597656 1364.507812 C 717.449219 1363.855469 715.324219 1363.136719 713.222656 1362.34375 C 711.121094 1361.550781 709.046875 1360.691406 707.003906 1359.761719 C 704.960938 1358.832031 702.949219 1357.832031 700.972656 1356.769531 C 698.996094 1355.707031 697.054688 1354.578125 695.152344 1353.386719 L 556.433594 1273.246094 C 546.976562 1267.605469 536.355469 1263.132812 529.660156 1253.992188 C 535.574219 1246.054688 546.082031 1245.042969 554.640625 1241.542969 C 573.941406 1235.394531 591.609375 1225.980469 609.351562 1216.023438 C 613.828125 1212.910156 619.3125 1214.078125 623.59375 1216.878906 L 741.886719 1285.269531 C 750.328125 1290.132812 758.890625 1283.710938 766.128906 1279.628906 L 1220.03125 1023.535156 C 1225.636719 1020.8125 1228.75 1014.898438 1228.28125 1008.753906 L 1228.28125 488.636719 C 1228.90625 481.632812 1224.898438 475.253906 1218.554688 472.414062 L 757.449219 212.820312 C 756.789062 212.363281 756.097656 211.960938 755.375 211.609375 C 754.65625 211.253906 753.910156 210.960938 753.144531 210.71875 C 752.378906 210.480469 751.597656 210.296875 750.804688 210.175781 C 750.011719 210.054688 749.210938 209.992188 748.410156 209.988281 C 747.605469 209.988281 746.808594 210.046875 746.011719 210.164062 C 745.21875 210.285156 744.4375 210.460938 743.671875 210.699219 C 742.902344 210.9375 742.15625 211.230469 741.433594 211.578125 C 740.710938 211.925781 740.019531 212.328125 739.355469 212.78125 L 278.914062 472.917969 C 272.6875 475.757812 268.40625 482.0625 269.183594 489.0625 L 269.183594 1009.183594 C 268.640625 1015.328125 271.910156 1021.125 277.550781 1023.769531 L 400.589844 1093.210938 C 423.703125 1105.660156 452.070312 1112.660156 477.519531 1103.519531 C 478.902344 1103 480.261719 1102.425781 481.601562 1101.800781 C 482.9375 1101.179688 484.25 1100.503906 485.539062 1099.78125 C 486.824219 1099.058594 488.085938 1098.285156 489.3125 1097.464844 C 490.542969 1096.648438 491.738281 1095.785156 492.902344 1094.875 C 494.0625 1093.964844 495.191406 1093.011719 496.28125 1092.015625 C 497.371094 1091.019531 498.425781 1089.984375 499.4375 1088.910156 C 500.449219 1087.835938 501.417969 1086.722656 502.347656 1085.574219 C 503.273438 1084.425781 504.15625 1083.242188 504.996094 1082.027344 C 505.832031 1080.8125 506.625 1079.566406 507.367188 1078.289062 C 508.109375 1077.015625 508.804688 1075.710938 509.449219 1074.382812 C 510.09375 1073.054688 510.6875 1071.703125 511.230469 1070.332031 C 511.773438 1068.957031 512.261719 1067.566406 512.699219 1066.15625 C 513.132812 1064.742188 513.515625 1063.320312 513.84375 1061.878906 C 514.171875 1060.441406 514.445312 1058.988281 514.664062 1057.53125 C 514.882812 1056.070312 515.042969 1054.601562 515.148438 1053.128906 C 515.257812 1051.65625 515.308594 1050.183594 515.300781 1048.707031 L 515.417969 531.699219 C 514.875 524.035156 522.113281 517.695312 529.542969 518.472656 L 588.691406 518.472656 C 596.472656 518.277344 602.582031 526.527344 601.53125 534.230469 L 601.414062 1054.503906 C 601.453125 1100.71875 582.464844 1150.980469 539.699219 1173.660156 C 487.011719 1200.890625 421.875 1195.171875 369.8125 1168.992188 L 237.511719 1095.855469 C 206.382812 1080.292969 185.488281 1046.683594 185.679688 1011.828125 L 185.679688 486.652344 C 185.695312 484.53125 185.785156 482.410156 185.941406 480.296875 C 186.097656 478.179688 186.324219 476.070312 186.621094 473.96875 C 186.917969 471.867188 187.285156 469.78125 187.722656 467.703125 C 188.160156 465.625 188.664062 463.566406 189.238281 461.523438 C 189.8125 459.480469 190.453125 457.460938 191.160156 455.457031 C 191.867188 453.457031 192.640625 451.484375 193.480469 449.535156 C 194.320312 447.585938 195.222656 445.667969 196.1875 443.777344 C 197.15625 441.890625 198.183594 440.035156 199.273438 438.214844 C 200.367188 436.394531 201.515625 434.613281 202.722656 432.867188 C 203.933594 431.125 205.199219 429.421875 206.519531 427.761719 C 207.84375 426.101562 209.21875 424.488281 210.648438 422.917969 C 212.078125 421.351562 213.558594 419.832031 215.089844 418.363281 C 216.621094 416.890625 218.195312 415.472656 219.820312 414.109375 C 221.445312 412.746094 223.117188 411.433594 224.828125 410.179688 C 226.539062 408.925781 228.292969 407.730469 230.082031 406.59375 C 231.875 405.457031 233.703125 404.378906 235.566406 403.363281 Z M 831.769531 506.179688 C 898.972656 502.289062 970.917969 503.613281 1031.386719 536.71875 C 1078.199219 562.082031 1104.152344 615.300781 1105.007812 667.351562 C 1103.6875 674.351562 1096.371094 678.242188 1089.679688 677.738281 C 1070.222656 677.699219 1050.6875 678.011719 1031.15625 677.621094 C 1022.867188 677.933594 1018.082031 670.308594 1017.03125 662.992188 C 1011.425781 638.097656 997.847656 613.472656 974.421875 601.453125 C 938.46875 583.441406 896.753906 584.335938 857.53125 584.722656 C 828.890625 586.28125 798.113281 588.730469 773.871094 605.535156 C 755.191406 618.296875 749.589844 644.4375 756.242188 664.746094 C 762.46875 679.644531 779.707031 684.429688 793.753906 688.863281 C 874.769531 710.027344 960.570312 708.316406 1040.066406 735.820312 C 1072.945312 747.175781 1105.125 769.273438 1116.410156 803.703125 C 1131.121094 849.839844 1124.699219 905.003906 1091.894531 942.039062 C 1065.28125 972.535156 1026.523438 988.71875 987.808594 998.132812 C 936.328125 1009.609375 882.941406 1009.882812 830.683594 1004.746094 C 781.535156 999.144531 730.40625 986.230469 692.46875 952.773438 C 660.015625 924.609375 644.21875 880.726562 645.773438 838.402344 C 646.164062 831.246094 653.285156 826.265625 660.171875 826.847656 L 718.539062 826.847656 C 726.398438 826.304688 732.15625 833.074219 732.546875 840.464844 C 736.164062 863.804688 745.078125 889.089844 765.777344 902.707031 C 805.699219 928.460938 855.78125 926.671875 901.460938 927.410156 C 939.324219 925.738281 981.816406 925.230469 1012.75 900.179688 C 1029.09375 885.902344 1033.878906 862.054688 1029.480469 841.515625 C 1024.695312 824.164062 1006.136719 816.113281 990.570312 810.394531 C 910.605469 785.105469 823.832031 794.289062 744.648438 765.65625 C 712.507812 754.296875 681.417969 732.824219 669.082031 699.796875 C 651.84375 653.113281 659.742188 595.265625 696.046875 559.476562 C 731.066406 523.882812 782.429688 510.148438 831.070312 505.246094 Z M 831.769531 506.179688 " fill-opacity="1" fill-rule="nonzero"/></svg>