<svg xmlns="http://www.w3.org/2000/svg" xmlns:xlink="http://www.w3.org/1999/xlink" width="2000" zoomAndPan="magnify" viewBox="0 0 1500 1499.999933" height="2000" preserveAspectRatio="xMidYMid meet" version="1.0"><defs><clipPath id="43f37ed9da"><path d="M 51 387.332031 L 1450 387.332031 L 1450 1112.582031 L 51 1112.582031 Z M 51 387.332031 " clip-rule="nonzero"/></clipPath><clipPath id="b938f7aeda"><path d="M 51.292969 750.480469 C 51.292969 950.773438 364.296875 1113.148438 750.371094 1113.148438 C 1136.445312 1113.148438 1449.449219 950.773438 1449.449219 750.480469 C 1449.449219 550.183594 1136.445312 387.808594 750.371094 387.808594 C 364.296875 387.808594 51.292969 550.191406 51.292969 750.480469 " clip-rule="nonzero"/></clipPath><clipPath id="d719463cfd"><path d="M 51.292969 750.480469 C 51.292969 950.773438 364.296875 1113.148438 750.371094 1113.148438 C 1136.445312 1113.148438 1449.449219 950.773438 1449.449219 750.480469 C 1449.449219 550.183594 1136.445312 387.808594 750.371094 387.808594 C 364.296875 387.808594 51.292969 550.191406 51.292969 750.480469 " clip-rule="nonzero"/></clipPath><radialGradient gradientTransform="matrix(1.006947, 0, 0, 0.993053, 471.023542, 515.307087)" gradientUnits="userSpaceOnUse" r="911.660999" cx="0" id="e8f6d9a045" cy="0" fx="0" fy="0"><stop stop-opacity="1" stop-color="rgb(68.238831%, 69.799805%, 83.529663%)" offset="0"/><stop stop-opacity="1" stop-color="rgb(68.238831%, 69.799805%, 83.529663%)" offset="0.25"/><stop stop-opacity="1" stop-color="rgb(68.203735%, 69.764709%, 83.503723%)" offset="0.296875"/><stop stop-opacity="1" stop-color="rgb(67.996216%, 69.555664%, 83.348083%)" offset="0.300781"/><stop stop-opacity="1" stop-color="rgb(67.648315%, 69.20929%, 83.088684%)" offset="0.304688"/><stop stop-opacity="1" stop-color="rgb(67.301941%, 68.861389%, 82.830811%)" offset="0.308594"/><stop stop-opacity="1" stop-color="rgb(66.954041%, 68.513489%, 82.571411%)" offset="0.3125"/><stop stop-opacity="1" stop-color="rgb(66.607666%, 68.167114%, 82.313538%)" offset="0.316406"/><stop stop-opacity="1" stop-color="rgb(66.259766%, 67.819214%, 82.054138%)" offset="0.320312"/><stop stop-opacity="1" stop-color="rgb(65.911865%, 67.472839%, 81.796265%)" offset="0.324219"/><stop stop-opacity="1" stop-color="rgb(65.565491%, 67.124939%, 81.536865%)" offset="0.328125"/><stop stop-opacity="1" stop-color="rgb(65.21759%, 66.778564%, 81.278992%)" offset="0.332031"/><stop stop-opacity="1" stop-color="rgb(64.871216%, 66.430664%, 81.019592%)" offset="0.335938"/><stop stop-opacity="1" stop-color="rgb(64.523315%, 66.08429%, 80.761719%)" offset="0.339844"/><stop stop-opacity="1" stop-color="rgb(64.176941%, 65.736389%, 80.502319%)" offset="0.34375"/><stop stop-opacity="1" stop-color="rgb(63.829041%, 65.388489%, 80.24292%)" offset="0.347656"/><stop stop-opacity="1" stop-color="rgb(63.482666%, 65.042114%, 79.985046%)" offset="0.351562"/><stop stop-opacity="1" stop-color="rgb(63.134766%, 64.694214%, 79.725647%)" offset="0.355469"/><stop stop-opacity="1" stop-color="rgb(62.786865%, 64.347839%, 79.467773%)" offset="0.359375"/><stop stop-opacity="1" stop-color="rgb(62.440491%, 63.999939%, 79.208374%)" offset="0.363281"/><stop stop-opacity="1" stop-color="rgb(62.09259%, 63.653564%, 78.9505%)" offset="0.367188"/><stop stop-opacity="1" stop-color="rgb(61.746216%, 63.305664%, 78.691101%)" offset="0.371094"/><stop stop-opacity="1" stop-color="rgb(61.398315%, 62.95929%, 78.433228%)" offset="0.375"/><stop stop-opacity="1" stop-color="rgb(61.051941%, 62.611389%, 78.173828%)" offset="0.378906"/><stop stop-opacity="1" stop-color="rgb(60.704041%, 62.263489%, 77.915955%)" offset="0.382812"/><stop stop-opacity="1" stop-color="rgb(60.357666%, 61.917114%, 77.656555%)" offset="0.386719"/><stop stop-opacity="1" stop-color="rgb(60.009766%, 61.569214%, 77.398682%)" offset="0.390625"/><stop stop-opacity="1" stop-color="rgb(59.661865%, 61.222839%, 77.139282%)" offset="0.394531"/><stop stop-opacity="1" stop-color="rgb(59.315491%, 60.874939%, 76.881409%)" offset="0.398438"/><stop stop-opacity="1" stop-color="rgb(58.96759%, 60.528564%, 76.622009%)" offset="0.402344"/><stop stop-opacity="1" stop-color="rgb(58.621216%, 60.180664%, 76.364136%)" offset="0.40625"/><stop stop-opacity="1" stop-color="rgb(58.273315%, 59.83429%, 76.104736%)" offset="0.410156"/><stop stop-opacity="1" stop-color="rgb(57.926941%, 59.486389%, 75.845337%)" offset="0.414062"/><stop stop-opacity="1" stop-color="rgb(57.579041%, 59.138489%, 75.587463%)" offset="0.417969"/><stop stop-opacity="1" stop-color="rgb(57.232666%, 58.792114%, 75.328064%)" offset="0.421875"/><stop stop-opacity="1" stop-color="rgb(56.884766%, 58.444214%, 75.07019%)" offset="0.425781"/><stop stop-opacity="1" stop-color="rgb(56.536865%, 58.097839%, 74.810791%)" offset="0.429688"/><stop stop-opacity="1" stop-color="rgb(56.190491%, 57.749939%, 74.552917%)" offset="0.433594"/><stop stop-opacity="1" stop-color="rgb(55.84259%, 57.403564%, 74.293518%)" offset="0.4375"/><stop stop-opacity="1" stop-color="rgb(55.496216%, 57.055664%, 74.035645%)" offset="0.441406"/><stop stop-opacity="1" stop-color="rgb(55.148315%, 56.70929%, 73.776245%)" offset="0.445312"/><stop stop-opacity="1" stop-color="rgb(54.801941%, 56.361389%, 73.518372%)" offset="0.449219"/><stop stop-opacity="1" stop-color="rgb(54.454041%, 56.013489%, 73.258972%)" offset="0.453125"/><stop stop-opacity="1" stop-color="rgb(54.107666%, 55.667114%, 73.001099%)" offset="0.457031"/><stop stop-opacity="1" stop-color="rgb(53.759766%, 55.319214%, 72.741699%)" offset="0.460938"/><stop stop-opacity="1" stop-color="rgb(53.411865%, 54.972839%, 72.483826%)" offset="0.464844"/><stop stop-opacity="1" stop-color="rgb(53.065491%, 54.624939%, 72.224426%)" offset="0.46875"/><stop stop-opacity="1" stop-color="rgb(52.71759%, 54.278564%, 71.966553%)" offset="0.472656"/><stop stop-opacity="1" stop-color="rgb(52.371216%, 53.930664%, 71.707153%)" offset="0.476562"/><stop stop-opacity="1" stop-color="rgb(52.023315%, 53.58429%, 71.447754%)" offset="0.480469"/><stop stop-opacity="1" stop-color="rgb(51.676941%, 53.236389%, 71.18988%)" offset="0.484375"/><stop stop-opacity="1" stop-color="rgb(51.329041%, 52.888489%, 70.930481%)" offset="0.488281"/><stop stop-opacity="1" stop-color="rgb(50.982666%, 52.542114%, 70.672607%)" offset="0.492188"/><stop stop-opacity="1" stop-color="rgb(50.634766%, 52.194214%, 70.413208%)" offset="0.496094"/><stop stop-opacity="1" stop-color="rgb(50.286865%, 51.847839%, 70.155334%)" offset="0.5"/><stop stop-opacity="1" stop-color="rgb(49.940491%, 51.499939%, 69.895935%)" offset="0.503906"/><stop stop-opacity="1" stop-color="rgb(49.59259%, 51.153564%, 69.638062%)" offset="0.507812"/><stop stop-opacity="1" stop-color="rgb(49.246216%, 50.805664%, 69.378662%)" offset="0.511719"/><stop stop-opacity="1" stop-color="rgb(48.898315%, 50.45929%, 69.120789%)" offset="0.515625"/><stop stop-opacity="1" stop-color="rgb(48.551941%, 50.111389%, 68.861389%)" offset="0.519531"/><stop stop-opacity="1" stop-color="rgb(48.204041%, 49.763489%, 68.603516%)" offset="0.523438"/><stop stop-opacity="1" stop-color="rgb(47.857666%, 49.417114%, 68.344116%)" offset="0.527344"/><stop stop-opacity="1" stop-color="rgb(47.509766%, 49.069214%, 68.086243%)" offset="0.53125"/><stop stop-opacity="1" stop-color="rgb(47.161865%, 48.722839%, 67.826843%)" offset="0.535156"/><stop stop-opacity="1" stop-color="rgb(46.815491%, 48.374939%, 67.56897%)" offset="0.539062"/><stop stop-opacity="1" stop-color="rgb(46.46759%, 48.028564%, 67.30957%)" offset="0.542969"/><stop stop-opacity="1" stop-color="rgb(46.121216%, 47.680664%, 67.050171%)" offset="0.546875"/><stop stop-opacity="1" stop-color="rgb(45.773315%, 47.33429%, 66.792297%)" offset="0.550781"/><stop stop-opacity="1" stop-color="rgb(45.426941%, 46.986389%, 66.532898%)" offset="0.554688"/><stop stop-opacity="1" stop-color="rgb(45.079041%, 46.638489%, 66.275024%)" offset="0.558594"/><stop stop-opacity="1" stop-color="rgb(44.732666%, 46.292114%, 66.015625%)" offset="0.5625"/><stop stop-opacity="1" stop-color="rgb(44.384766%, 45.944214%, 65.757751%)" offset="0.566406"/><stop stop-opacity="1" stop-color="rgb(44.036865%, 45.597839%, 65.498352%)" offset="0.570312"/><stop stop-opacity="1" stop-color="rgb(43.690491%, 45.249939%, 65.240479%)" offset="0.574219"/><stop stop-opacity="1" stop-color="rgb(43.34259%, 44.903564%, 64.981079%)" offset="0.578125"/><stop stop-opacity="1" stop-color="rgb(42.996216%, 44.555664%, 64.723206%)" offset="0.582031"/><stop stop-opacity="1" stop-color="rgb(42.648315%, 44.20929%, 64.463806%)" offset="0.585938"/><stop stop-opacity="1" stop-color="rgb(42.301941%, 43.861389%, 64.205933%)" offset="0.589844"/><stop stop-opacity="1" stop-color="rgb(41.954041%, 43.513489%, 63.946533%)" offset="0.59375"/><stop stop-opacity="1" stop-color="rgb(41.607666%, 43.167114%, 63.68866%)" offset="0.597656"/><stop stop-opacity="1" stop-color="rgb(41.259766%, 42.819214%, 63.42926%)" offset="0.601562"/><stop stop-opacity="1" stop-color="rgb(40.911865%, 42.472839%, 63.171387%)" offset="0.605469"/><stop stop-opacity="1" stop-color="rgb(40.565491%, 42.124939%, 62.911987%)" offset="0.609375"/><stop stop-opacity="1" stop-color="rgb(40.21759%, 41.778564%, 62.654114%)" offset="0.613281"/><stop stop-opacity="1" stop-color="rgb(39.871216%, 41.430664%, 62.394714%)" offset="0.617188"/><stop stop-opacity="1" stop-color="rgb(39.523315%, 41.08429%, 62.135315%)" offset="0.621094"/><stop stop-opacity="1" stop-color="rgb(39.176941%, 40.736389%, 61.877441%)" offset="0.625"/><stop stop-opacity="1" stop-color="rgb(38.829041%, 40.388489%, 61.618042%)" offset="0.628906"/><stop stop-opacity="1" stop-color="rgb(38.482666%, 40.042114%, 61.360168%)" offset="0.632812"/><stop stop-opacity="1" stop-color="rgb(38.134766%, 39.694214%, 61.100769%)" offset="0.636719"/><stop stop-opacity="1" stop-color="rgb(37.786865%, 39.347839%, 60.842896%)" offset="0.640625"/><stop stop-opacity="1" stop-color="rgb(37.440491%, 38.999939%, 60.583496%)" offset="0.644531"/><stop stop-opacity="1" stop-color="rgb(37.09259%, 38.653564%, 60.325623%)" offset="0.648438"/><stop stop-opacity="1" stop-color="rgb(36.746216%, 38.305664%, 60.066223%)" offset="0.652344"/><stop stop-opacity="1" stop-color="rgb(36.398315%, 37.95929%, 59.80835%)" offset="0.65625"/><stop stop-opacity="1" stop-color="rgb(36.051941%, 37.611389%, 59.54895%)" offset="0.660156"/><stop stop-opacity="1" stop-color="rgb(35.704041%, 37.263489%, 59.291077%)" offset="0.664062"/><stop stop-opacity="1" stop-color="rgb(35.357666%, 36.917114%, 59.031677%)" offset="0.667969"/><stop stop-opacity="1" stop-color="rgb(35.009766%, 36.569214%, 58.773804%)" offset="0.671875"/><stop stop-opacity="1" stop-color="rgb(34.661865%, 36.222839%, 58.514404%)" offset="0.675781"/><stop stop-opacity="1" stop-color="rgb(34.315491%, 35.874939%, 58.256531%)" offset="0.679688"/><stop stop-opacity="1" stop-color="rgb(33.96759%, 35.528564%, 57.997131%)" offset="0.683594"/><stop stop-opacity="1" stop-color="rgb(33.621216%, 35.180664%, 57.737732%)" offset="0.6875"/><stop stop-opacity="1" stop-color="rgb(33.273315%, 34.83429%, 57.479858%)" offset="0.691406"/><stop stop-opacity="1" stop-color="rgb(32.926941%, 34.486389%, 57.220459%)" offset="0.695312"/><stop stop-opacity="1" stop-color="rgb(32.579041%, 34.138489%, 56.962585%)" offset="0.699219"/><stop stop-opacity="1" stop-color="rgb(32.232666%, 33.792114%, 56.703186%)" offset="0.703125"/><stop stop-opacity="1" stop-color="rgb(31.884766%, 33.444214%, 56.445312%)" offset="0.707031"/><stop stop-opacity="1" stop-color="rgb(31.536865%, 33.097839%, 56.185913%)" offset="0.710938"/><stop stop-opacity="1" stop-color="rgb(31.190491%, 32.749939%, 55.92804%)" offset="0.714844"/><stop stop-opacity="1" stop-color="rgb(30.84259%, 32.403564%, 55.66864%)" offset="0.71875"/><stop stop-opacity="1" stop-color="rgb(30.496216%, 32.055664%, 55.410767%)" offset="0.722656"/><stop stop-opacity="1" stop-color="rgb(30.148315%, 31.70929%, 55.151367%)" offset="0.726562"/><stop stop-opacity="1" stop-color="rgb(29.801941%, 31.361389%, 54.893494%)" offset="0.730469"/><stop stop-opacity="1" stop-color="rgb(29.454041%, 31.013489%, 54.634094%)" offset="0.734375"/><stop stop-opacity="1" stop-color="rgb(29.107666%, 30.667114%, 54.376221%)" offset="0.738281"/><stop stop-opacity="1" stop-color="rgb(28.759766%, 30.319214%, 54.116821%)" offset="0.742188"/><stop stop-opacity="1" stop-color="rgb(28.411865%, 29.972839%, 53.858948%)" offset="0.746094"/><stop stop-opacity="1" stop-color="rgb(28.239441%, 29.798889%, 53.729248%)" offset="1"/></radialGradient></defs><g clip-path="url(#43f37ed9da)"><g clip-path="url(#b938f7aeda)"><g clip-path="url(#d719463cfd)"><path fill="url(#e8f6d9a045)" d="M 51.292969 387.808594 L 51.292969 1112.582031 L 1449.449219 1112.582031 L 1449.449219 387.808594 Z M 51.292969 387.808594 " fill-rule="nonzero"/></g></g></g><path fill="#777bb3" d="M 750.371094 1086.21875 C 1121.378906 1086.21875 1422.140625 935.902344 1422.140625 750.480469 C 1422.140625 565.054688 1121.378906 414.738281 750.371094 414.738281 C 379.367188 414.738281 78.601562 565.054688 78.601562 750.480469 C 78.601562 935.902344 379.367188 1086.21875 750.371094 1086.21875 " fill-opacity="1" fill-rule="nonzero"/><path fill="#000000" d="M 431.097656 792.097656 C 461.605469 792.097656 484.378906 786.546875 498.785156 775.613281 C 513.042969 764.792969 522.886719 746.035156 528.046875 719.875 C 532.859375 695.421875 531.027344 678.347656 522.601562 669.136719 C 513.988281 659.722656 495.363281 654.953125 467.246094 654.953125 L 418.496094 654.953125 L 391.46875 792.097656 Z M 271.652344 961.046875 C 269.390625 961.046875 267.238281 960.046875 265.800781 958.324219 C 265.082031 957.460938 264.582031 956.488281 264.300781 955.40625 C 264.023438 954.324219 263.992188 953.234375 264.207031 952.140625 L 335.835938 588.695312 C 335.917969 588.273438 336.039062 587.859375 336.195312 587.457031 C 336.347656 587.054688 336.539062 586.667969 336.761719 586.300781 C 336.984375 585.929688 337.238281 585.582031 337.523438 585.253906 C 337.808594 584.925781 338.121094 584.625 338.457031 584.351562 C 338.792969 584.078125 339.152344 583.835938 339.53125 583.621094 C 339.910156 583.410156 340.308594 583.230469 340.71875 583.085938 C 341.128906 582.9375 341.550781 582.828125 341.980469 582.753906 C 342.410156 582.679688 342.84375 582.644531 343.28125 582.644531 L 497.65625 582.644531 C 546.171875 582.644531 582.285156 595.609375 604.984375 621.261719 C 627.800781 647.023438 634.847656 683.035156 625.925781 728.289062 C 622.296875 746.726562 616.050781 763.847656 607.367188 779.183594 C 598.667969 794.53125 587.179688 808.730469 573.207031 821.398438 C 556.480469 836.839844 537.546875 848.035156 516.984375 854.625 C 496.75 861.125 470.761719 864.425781 439.742188 864.425781 L 377.234375 864.425781 L 359.382812 954.996094 C 359.300781 955.417969 359.179688 955.832031 359.023438 956.234375 C 358.867188 956.636719 358.679688 957.023438 358.457031 957.394531 C 358.234375 957.765625 357.980469 958.113281 357.695312 958.441406 C 357.410156 958.765625 357.101562 959.066406 356.761719 959.339844 C 356.425781 959.617188 356.066406 959.859375 355.6875 960.070312 C 355.308594 960.285156 354.914062 960.464844 354.5 960.609375 C 354.089844 960.757812 353.671875 960.867188 353.238281 960.941406 C 352.808594 961.015625 352.375 961.050781 351.9375 961.050781 L 271.632812 961.050781 Z M 271.652344 961.046875 " fill-opacity="1" fill-rule="nonzero"/><path fill="#ffffff" d="M 424.753906 662.429688 L 467.25 662.429688 C 501.183594 662.429688 512.972656 669.773438 516.980469 674.148438 C 523.625 681.414062 524.878906 696.738281 520.605469 718.453125 C 515.808594 742.765625 506.914062 760.003906 494.164062 769.683594 C 481.113281 779.59375 459.894531 784.617188 431.105469 784.617188 L 400.6875 784.617188 L 424.765625 662.429688 Z M 497.648438 575.152344 L 343.285156 575.152344 C 342.410156 575.152344 341.542969 575.226562 340.683594 575.375 C 339.820312 575.523438 338.980469 575.742188 338.15625 576.035156 C 337.335938 576.324219 336.546875 576.683594 335.785156 577.109375 C 335.027344 577.535156 334.308594 578.023438 333.636719 578.570312 C 332.960938 579.117188 332.339844 579.71875 331.769531 580.375 C 331.203125 581.027344 330.695312 581.726562 330.246094 582.464844 C 329.800781 583.207031 329.421875 583.980469 329.109375 584.785156 C 328.800781 585.589844 328.558594 586.414062 328.394531 587.261719 L 256.769531 950.726562 C 256.664062 951.265625 256.585938 951.8125 256.542969 952.359375 C 256.496094 952.90625 256.480469 953.457031 256.496094 954.007812 C 256.511719 954.554688 256.558594 955.101562 256.636719 955.648438 C 256.714844 956.191406 256.820312 956.730469 256.957031 957.265625 C 257.09375 957.796875 257.261719 958.320312 257.457031 958.835938 C 257.652344 959.351562 257.878906 959.851562 258.128906 960.34375 C 258.382812 960.835938 258.660156 961.308594 258.964844 961.769531 C 259.269531 962.230469 259.601562 962.671875 259.957031 963.097656 C 260.308594 963.519531 260.6875 963.925781 261.085938 964.308594 C 261.488281 964.691406 261.90625 965.050781 262.347656 965.390625 C 262.789062 965.726562 263.246094 966.039062 263.71875 966.328125 C 264.195312 966.617188 264.683594 966.878906 265.1875 967.113281 C 265.695312 967.347656 266.210938 967.554688 266.738281 967.730469 C 267.265625 967.910156 267.800781 968.058594 268.34375 968.179688 C 268.886719 968.300781 269.4375 968.390625 269.992188 968.449219 C 270.546875 968.511719 271.101562 968.542969 271.660156 968.542969 L 351.9375 968.542969 C 352.8125 968.542969 353.679688 968.46875 354.539062 968.320312 C 355.402344 968.171875 356.242188 967.953125 357.066406 967.660156 C 357.886719 967.371094 358.679688 967.011719 359.4375 966.585938 C 360.199219 966.160156 360.914062 965.671875 361.589844 965.125 C 362.261719 964.578125 362.886719 963.976562 363.453125 963.320312 C 364.023438 962.667969 364.53125 961.972656 364.976562 961.230469 C 365.425781 960.488281 365.804688 959.71875 366.113281 958.910156 C 366.425781 958.105469 366.664062 957.28125 366.832031 956.433594 L 383.488281 871.914062 L 439.75 871.914062 C 471.5625 871.914062 498.34375 868.492188 519.34375 861.75 C 540.9375 854.828125 560.8125 843.097656 578.394531 826.878906 C 592.941406 813.679688 604.945312 798.871094 613.996094 782.847656 C 623.050781 766.828125 629.597656 748.949219 633.386719 729.730469 C 642.777344 682.089844 635.148438 643.945312 610.703125 616.355469 C 586.503906 589.03125 548.46875 575.175781 497.667969 575.175781 M 382.285156 799.601562 L 431.117188 799.601562 C 463.480469 799.601562 487.59375 793.589844 503.429688 781.5625 C 519.269531 769.53125 529.960938 749.457031 535.511719 721.324219 C 540.824219 694.3125 538.40625 675.25 528.257812 664.144531 C 518.105469 653.039062 497.761719 647.488281 467.269531 647.488281 L 412.265625 647.488281 L 382.285156 799.597656 M 497.667969 590.136719 C 544.109375 590.136719 577.988281 602.152344 599.285156 626.191406 C 620.578125 650.230469 626.988281 683.789062 618.492188 726.871094 C 614.996094 744.617188 609.082031 760.84375 600.753906 775.546875 C 592.429688 790.25 581.535156 803.707031 568.082031 815.902344 C 552.050781 830.699219 534.242188 841.238281 514.648438 847.523438 C 495.050781 853.820312 470.09375 856.953125 439.753906 856.953125 L 370.988281 856.953125 L 351.949219 953.582031 L 271.667969 953.582031 L 343.300781 590.164062 L 497.679688 590.164062 " fill-opacity="1" fill-rule="nonzero"/><path fill="#000000" d="M 809.992188 864.410156 C 807.726562 864.410156 805.582031 863.414062 804.140625 861.6875 C 802.703125 859.960938 802.113281 857.699219 802.550781 855.503906 L 834.230469 694.691406 C 837.246094 679.398438 836.503906 668.421875 832.140625 663.785156 C 829.46875 660.949219 821.449219 656.191406 797.734375 656.191406 L 740.332031 656.191406 L 700.496094 858.355469 C 700.414062 858.777344 700.292969 859.191406 700.136719 859.59375 C 699.984375 859.996094 699.792969 860.382812 699.570312 860.753906 C 699.347656 861.121094 699.09375 861.472656 698.808594 861.796875 C 698.523438 862.125 698.214844 862.425781 697.875 862.699219 C 697.539062 862.972656 697.179688 863.21875 696.800781 863.429688 C 696.421875 863.644531 696.023438 863.824219 695.613281 863.96875 C 695.203125 864.113281 694.78125 864.222656 694.351562 864.296875 C 693.921875 864.371094 693.488281 864.410156 693.050781 864.410156 L 613.402344 864.410156 C 612.84375 864.410156 612.289062 864.347656 611.746094 864.226562 C 611.199219 864.109375 610.671875 863.929688 610.167969 863.695312 C 609.660156 863.457031 609.1875 863.171875 608.746094 862.832031 C 608.304688 862.496094 607.90625 862.113281 607.550781 861.6875 C 607.195312 861.261719 606.890625 860.800781 606.636719 860.308594 C 606.382812 859.816406 606.1875 859.304688 606.050781 858.769531 C 605.914062 858.234375 605.835938 857.691406 605.820312 857.140625 C 605.804688 856.589844 605.851562 856.042969 605.957031 855.5 L 677.582031 492.058594 C 677.667969 491.636719 677.785156 491.222656 677.941406 490.820312 C 678.097656 490.417969 678.289062 490.03125 678.511719 489.660156 C 678.734375 489.292969 678.988281 488.941406 679.273438 488.617188 C 679.558594 488.289062 679.867188 487.988281 680.207031 487.714844 C 680.542969 487.441406 680.902344 487.199219 681.28125 486.984375 C 681.660156 486.773438 682.054688 486.59375 682.46875 486.445312 C 682.878906 486.300781 683.296875 486.191406 683.730469 486.117188 C 684.160156 486.042969 684.59375 486.007812 685.03125 486.007812 L 764.675781 486.007812 C 765.238281 486.007812 765.789062 486.066406 766.335938 486.1875 C 766.882812 486.308594 767.40625 486.488281 767.914062 486.722656 C 768.417969 486.957031 768.894531 487.242188 769.335938 487.582031 C 769.777344 487.921875 770.175781 488.304688 770.53125 488.730469 C 770.886719 489.15625 771.191406 489.613281 771.445312 490.105469 C 771.695312 490.597656 771.890625 491.109375 772.03125 491.644531 C 772.167969 492.179688 772.246094 492.722656 772.261719 493.273438 C 772.277344 493.828125 772.230469 494.371094 772.125 494.914062 L 754.839844 582.632812 L 816.589844 582.632812 C 863.632812 582.632812 895.53125 590.8125 914.113281 607.640625 C 933.078125 624.804688 938.960938 652.25 931.679688 689.230469 L 898.355469 858.359375 C 898.269531 858.78125 898.152344 859.195312 897.996094 859.597656 C 897.839844 860 897.652344 860.386719 897.425781 860.757812 C 897.203125 861.128906 896.949219 861.476562 896.664062 861.804688 C 896.378906 862.128906 896.070312 862.429688 895.734375 862.707031 C 895.394531 862.980469 895.039062 863.222656 894.65625 863.4375 C 894.277344 863.648438 893.882812 863.828125 893.472656 863.972656 C 893.058594 864.121094 892.640625 864.230469 892.207031 864.304688 C 891.777344 864.375 891.34375 864.414062 890.90625 864.414062 L 809.996094 864.414062 Z M 809.992188 864.410156 " fill-opacity="1" fill-rule="nonzero"/><path fill="#ffffff" d="M 764.683594 478.527344 L 685.035156 478.527344 C 684.160156 478.527344 683.292969 478.601562 682.433594 478.746094 C 681.574219 478.894531 680.730469 479.113281 679.910156 479.40625 C 679.085938 479.699219 678.296875 480.054688 677.535156 480.480469 C 676.777344 480.90625 676.058594 481.394531 675.386719 481.941406 C 674.710938 482.492188 674.089844 483.09375 673.519531 483.746094 C 672.953125 484.398438 672.445312 485.097656 671.996094 485.839844 C 671.550781 486.578125 671.171875 487.351562 670.859375 488.15625 C 670.546875 488.960938 670.308594 489.785156 670.140625 490.632812 L 598.515625 854.074219 C 598.410156 854.617188 598.332031 855.160156 598.289062 855.707031 C 598.242188 856.253906 598.226562 856.804688 598.242188 857.355469 C 598.257812 857.902344 598.304688 858.453125 598.382812 858.996094 C 598.460938 859.539062 598.566406 860.078125 598.703125 860.613281 C 598.839844 861.144531 599.007812 861.667969 599.203125 862.183594 C 599.398438 862.699219 599.625 863.203125 599.875 863.691406 C 600.128906 864.183594 600.40625 864.660156 600.710938 865.117188 C 601.015625 865.578125 601.347656 866.019531 601.703125 866.445312 C 602.058594 866.871094 602.433594 867.273438 602.835938 867.65625 C 603.234375 868.039062 603.652344 868.402344 604.09375 868.738281 C 604.535156 869.078125 604.992188 869.390625 605.46875 869.675781 C 605.941406 869.964844 606.433594 870.226562 606.9375 870.460938 C 607.441406 870.695312 607.957031 870.902344 608.484375 871.078125 C 609.011719 871.257812 609.546875 871.40625 610.09375 871.527344 C 610.636719 871.648438 611.1875 871.738281 611.738281 871.800781 C 612.292969 871.859375 612.851562 871.890625 613.40625 871.890625 L 693.054688 871.890625 C 693.929688 871.890625 694.796875 871.816406 695.65625 871.667969 C 696.519531 871.519531 697.359375 871.300781 698.183594 871.011719 C 699.003906 870.71875 699.796875 870.359375 700.554688 869.933594 C 701.3125 869.507812 702.03125 869.019531 702.707031 868.472656 C 703.378906 867.925781 704 867.324219 704.570312 866.671875 C 705.140625 866.015625 705.648438 865.320312 706.09375 864.578125 C 706.539062 863.835938 706.917969 863.066406 707.230469 862.261719 C 707.542969 861.453125 707.78125 860.628906 707.949219 859.785156 L 746.589844 663.675781 L 797.742188 663.675781 C 821.417969 663.675781 826.386719 668.660156 826.585938 668.875 C 828.019531 670.398438 829.910156 677.453125 826.792969 693.261719 L 795.109375 854.074219 C 795.003906 854.617188 794.929688 855.160156 794.882812 855.707031 C 794.835938 856.253906 794.824219 856.804688 794.839844 857.355469 C 794.855469 857.902344 794.902344 858.453125 794.976562 858.996094 C 795.054688 859.539062 795.160156 860.078125 795.300781 860.613281 C 795.4375 861.144531 795.601562 861.667969 795.800781 862.183594 C 795.996094 862.699219 796.21875 863.203125 796.472656 863.691406 C 796.722656 864.183594 797.003906 864.660156 797.308594 865.117188 C 797.613281 865.578125 797.941406 866.019531 798.296875 866.445312 C 798.652344 866.871094 799.03125 867.273438 799.429688 867.65625 C 799.828125 868.039062 800.25 868.402344 800.691406 868.738281 C 801.128906 869.078125 801.585938 869.390625 802.0625 869.675781 C 802.539062 869.964844 803.027344 870.226562 803.53125 870.460938 C 804.035156 870.695312 804.550781 870.902344 805.082031 871.082031 C 805.609375 871.257812 806.144531 871.40625 806.6875 871.527344 C 807.230469 871.648438 807.78125 871.738281 808.335938 871.800781 C 808.890625 871.859375 809.445312 871.890625 810.003906 871.890625 L 890.914062 871.890625 C 891.789062 871.890625 892.65625 871.816406 893.515625 871.667969 C 894.378906 871.519531 895.21875 871.300781 896.042969 871.011719 C 896.863281 870.71875 897.65625 870.359375 898.414062 869.933594 C 899.175781 869.507812 899.890625 869.019531 900.566406 868.472656 C 901.238281 867.925781 901.859375 867.324219 902.429688 866.671875 C 903 866.015625 903.507812 865.320312 903.953125 864.578125 C 904.402344 863.835938 904.78125 863.066406 905.089844 862.257812 C 905.402344 861.453125 905.640625 860.628906 905.808594 859.785156 L 939.132812 690.65625 C 946.953125 650.957031 940.265625 621.171875 919.257812 602.132812 C 899.214844 583.976562 865.636719 575.152344 816.601562 575.152344 L 764.050781 575.152344 L 779.582031 496.339844 C 779.691406 495.800781 779.765625 495.257812 779.8125 494.707031 C 779.855469 494.160156 779.871094 493.613281 779.855469 493.0625 C 779.839844 492.511719 779.792969 491.964844 779.714844 491.417969 C 779.640625 490.875 779.53125 490.335938 779.394531 489.804688 C 779.257812 489.269531 779.089844 488.746094 778.894531 488.230469 C 778.699219 487.714844 778.476562 487.210938 778.222656 486.722656 C 777.972656 486.230469 777.691406 485.757812 777.386719 485.296875 C 777.082031 484.835938 776.75 484.394531 776.398438 483.96875 C 776.042969 483.542969 775.664062 483.140625 775.265625 482.757812 C 774.863281 482.375 774.445312 482.011719 774.003906 481.675781 C 773.566406 481.335938 773.105469 481.023438 772.632812 480.738281 C 772.15625 480.449219 771.667969 480.1875 771.160156 479.953125 C 770.65625 479.71875 770.140625 479.511719 769.613281 479.332031 C 769.085938 479.15625 768.550781 479.007812 768.007812 478.886719 C 767.460938 478.765625 766.914062 478.675781 766.359375 478.613281 C 765.804688 478.554688 765.25 478.523438 764.691406 478.523438 M 764.691406 493.484375 L 745.652344 590.113281 L 816.605469 590.113281 C 861.25 590.113281 892.046875 597.796875 908.996094 613.148438 C 925.949219 628.5 931.019531 653.394531 924.25 687.800781 L 890.921875 856.929688 L 810.011719 856.929688 L 841.691406 696.121094 C 845.296875 677.828125 843.972656 665.351562 837.714844 658.695312 C 831.453125 652.042969 818.128906 648.710938 797.75 648.710938 L 734.082031 648.710938 L 693.054688 856.929688 L 613.40625 856.929688 L 685.035156 493.484375 L 764.683594 493.484375 " fill-opacity="1" fill-rule="nonzero"/><path fill="#000000" d="M 1057.710938 792.097656 C 1088.214844 792.097656 1110.988281 786.546875 1125.398438 775.613281 C 1139.652344 764.792969 1149.5 746.039062 1154.664062 719.875 C 1159.472656 695.421875 1157.640625 678.347656 1149.214844 669.136719 C 1140.597656 659.722656 1121.972656 654.953125 1093.855469 654.953125 L 1045.109375 654.953125 L 1018.078125 792.097656 Z M 898.257812 961.039062 C 895.996094 961.039062 893.84375 960.042969 892.40625 958.316406 C 891.6875 957.453125 891.1875 956.480469 890.90625 955.398438 C 890.628906 954.316406 890.597656 953.226562 890.8125 952.132812 L 962.4375 588.6875 C 962.523438 588.265625 962.640625 587.851562 962.796875 587.449219 C 962.953125 587.046875 963.144531 586.660156 963.367188 586.292969 C 963.589844 585.921875 963.84375 585.570312 964.128906 585.246094 C 964.414062 584.917969 964.722656 584.617188 965.0625 584.34375 C 965.398438 584.070312 965.757812 583.828125 966.136719 583.613281 C 966.515625 583.402344 966.914062 583.222656 967.324219 583.074219 C 967.734375 582.929688 968.15625 582.820312 968.585938 582.746094 C 969.015625 582.671875 969.449219 582.636719 969.886719 582.636719 L 1124.257812 582.636719 C 1172.78125 582.636719 1208.886719 595.605469 1231.589844 621.253906 C 1254.410156 647.015625 1261.449219 683.023438 1252.53125 728.28125 C 1248.898438 746.71875 1242.652344 763.839844 1233.96875 779.175781 C 1225.269531 794.523438 1213.78125 808.722656 1199.808594 821.390625 C 1183.078125 836.832031 1164.148438 848.027344 1143.585938 854.617188 C 1123.347656 861.117188 1097.363281 864.417969 1066.34375 864.417969 L 1003.789062 864.417969 L 985.945312 954.988281 C 985.863281 955.410156 985.742188 955.824219 985.585938 956.226562 C 985.433594 956.628906 985.242188 957.015625 985.019531 957.386719 C 984.796875 957.757812 984.542969 958.105469 984.257812 958.433594 C 983.972656 958.761719 983.660156 959.0625 983.324219 959.335938 C 982.988281 959.609375 982.628906 959.851562 982.25 960.066406 C 981.867188 960.277344 981.472656 960.457031 981.0625 960.605469 C 980.648438 960.75 980.230469 960.859375 979.796875 960.933594 C 979.367188 961.007812 978.933594 961.042969 978.496094 961.042969 L 898.21875 961.042969 Z M 898.257812 961.039062 " fill-opacity="1" fill-rule="nonzero"/><path fill="#ffffff" d="M 1051.363281 662.429688 L 1093.863281 662.429688 C 1127.792969 662.429688 1139.585938 669.773438 1143.589844 674.148438 C 1150.238281 681.414062 1151.492188 696.738281 1147.21875 718.449219 C 1142.417969 742.761719 1133.523438 760.003906 1120.773438 769.683594 C 1107.722656 779.59375 1086.503906 784.617188 1057.714844 784.617188 L 1027.289062 784.617188 L 1051.367188 662.429688 Z M 1124.257812 575.152344 L 969.886719 575.152344 C 969.011719 575.152344 968.144531 575.226562 967.285156 575.375 C 966.421875 575.523438 965.582031 575.742188 964.757812 576.035156 C 963.9375 576.324219 963.144531 576.683594 962.386719 577.109375 C 961.628906 577.535156 960.910156 578.023438 960.238281 578.570312 C 959.5625 579.117188 958.941406 579.71875 958.371094 580.375 C 957.804688 581.027344 957.296875 581.726562 956.847656 582.464844 C 956.402344 583.207031 956.023438 583.980469 955.710938 584.785156 C 955.398438 585.589844 955.160156 586.414062 954.996094 587.261719 L 883.363281 950.726562 C 883.257812 951.265625 883.179688 951.8125 883.136719 952.359375 C 883.089844 952.90625 883.074219 953.457031 883.089844 954.007812 C 883.105469 954.554688 883.152344 955.101562 883.230469 955.648438 C 883.308594 956.191406 883.414062 956.730469 883.550781 957.265625 C 883.6875 957.796875 883.855469 958.320312 884.050781 958.835938 C 884.246094 959.351562 884.472656 959.851562 884.722656 960.34375 C 884.976562 960.835938 885.253906 961.308594 885.558594 961.769531 C 885.863281 962.230469 886.195312 962.671875 886.546875 963.097656 C 886.902344 963.519531 887.28125 963.925781 887.679688 964.308594 C 888.082031 964.691406 888.5 965.050781 888.941406 965.390625 C 889.378906 965.726562 889.839844 966.039062 890.3125 966.328125 C 890.789062 966.617188 891.277344 966.878906 891.78125 967.113281 C 892.285156 967.347656 892.804688 967.554688 893.332031 967.730469 C 893.859375 967.910156 894.394531 968.058594 894.9375 968.179688 C 895.480469 968.300781 896.03125 968.390625 896.585938 968.449219 C 897.140625 968.511719 897.695312 968.542969 898.253906 968.542969 L 978.53125 968.542969 C 979.40625 968.542969 980.273438 968.46875 981.132812 968.320312 C 981.996094 968.171875 982.835938 967.953125 983.660156 967.660156 C 984.480469 967.371094 985.273438 967.011719 986.03125 966.585938 C 986.792969 966.160156 987.507812 965.671875 988.183594 965.125 C 988.855469 964.578125 989.480469 963.976562 990.046875 963.320312 C 990.617188 962.667969 991.125 961.972656 991.570312 961.230469 C 992.019531 960.488281 992.398438 959.71875 992.707031 958.910156 C 993.019531 958.105469 993.257812 957.28125 993.425781 956.433594 L 1010.082031 871.914062 L 1066.339844 871.914062 C 1098.152344 871.914062 1124.933594 868.492188 1145.9375 861.75 C 1167.53125 854.828125 1187.402344 843.097656 1204.992188 826.871094 C 1219.535156 813.679688 1231.511719 798.871094 1240.589844 782.847656 C 1249.664062 766.828125 1256.1875 748.949219 1259.976562 729.730469 C 1269.371094 682.089844 1261.738281 643.941406 1237.296875 616.351562 C 1213.09375 589.03125 1175.0625 575.175781 1124.257812 575.175781 M 1008.878906 799.601562 L 1057.707031 799.601562 C 1090.070312 799.601562 1114.183594 793.589844 1130.023438 781.5625 C 1145.859375 769.53125 1156.550781 749.457031 1162.105469 721.324219 C 1167.417969 694.3125 1165 675.25 1154.847656 664.144531 C 1144.695312 653.039062 1124.351562 647.488281 1093.859375 647.488281 L 1038.855469 647.488281 L 1008.878906 799.597656 M 1124.257812 590.136719 C 1170.699219 590.136719 1204.578125 602.152344 1225.875 626.191406 C 1247.167969 650.230469 1253.578125 683.789062 1245.082031 726.871094 C 1241.585938 744.617188 1235.671875 760.84375 1227.347656 775.546875 C 1219.019531 790.25 1208.125 803.707031 1194.671875 815.902344 C 1178.640625 830.699219 1160.835938 841.238281 1141.238281 847.523438 C 1121.644531 853.820312 1096.6875 856.953125 1066.34375 856.953125 L 997.578125 856.953125 L 978.539062 953.582031 L 898.261719 953.582031 L 969.886719 590.136719 L 1124.261719 590.136719 " fill-opacity="1" fill-rule="nonzero"/></svg>